<svg width="62" height="59" viewBox="0 0 62 59" fill="none" xmlns="http://www.w3.org/2000/svg">
<path d="M57.5795 31.0491L30.9095 4.53906L4.22949 31.0491H12.8495V54.1391H48.9595V31.0491H57.5795Z" fill="#FFD500"/>
<path d="M30.9096 4.53906L57.5896 31.0591H48.9696V54.1491H12.8496V31.0491H4.22957L30.9096 4.53906ZM30.9096 0.539062C29.8896 0.539062 28.8696 0.929063 28.0896 1.69906L1.40958 28.2191C0.259575 29.3591 -0.0904249 31.0791 0.529575 32.5791C1.14958 34.0791 2.60957 35.0491 4.22957 35.0491H8.84958V54.1391C8.84958 56.3491 10.6396 58.1391 12.8496 58.1391H48.9596C51.1696 58.1391 52.9596 56.3491 52.9596 54.1391V35.0491H57.5796C59.1996 35.0491 60.6596 34.0691 61.2796 32.5791C61.8996 31.0791 61.5496 29.3591 60.3996 28.2191L33.7296 1.69906C32.9496 0.919063 31.9296 0.539062 30.9096 0.539062Z" fill="#005BBB"/>
</svg>
