<svg width="88" height="59" viewBox="0 0 88 59" fill="none" xmlns="http://www.w3.org/2000/svg">
<g clip-path="url(#clip0_2637_21859)">
<path d="M70.5795 31.0491L43.9095 4.53906L17.2295 31.0491H25.8495V54.1391H61.9595V31.0491H70.5795Z" fill="#FFD500"/>
<path d="M43.9096 4.53906L70.5896 31.0591H61.9696V54.1491H25.8496V31.0491H17.2296L43.9096 4.53906ZM43.9096 0.539062C42.8896 0.539062 41.8696 0.929063 41.0896 1.69906L14.4096 28.2191C13.2596 29.3591 12.9096 31.0791 13.5296 32.5791C14.1496 34.0791 15.6096 35.0491 17.2296 35.0491H21.8496V54.1391C21.8496 56.3491 23.6396 58.1391 25.8496 58.1391H61.9596C64.1696 58.1391 65.9596 56.3491 65.9596 54.1391V35.0491H70.5796C72.1996 35.0491 73.6596 34.0691 74.2796 32.5791C74.8996 31.0791 74.5496 29.3591 73.3996 28.2191L46.7296 1.69906C45.9496 0.919063 44.9296 0.539062 43.9096 0.539062Z" fill="#005BBB"/>
<path d="M49.5802 37.3594H38.2402V54.1394H49.5802V37.3594Z" fill="#005BBB"/>
</g>
<defs>
<clipPath id="clip0_2637_21859">
<rect width="87.82" height="58.55" fill="white"/>
</clipPath>
</defs>
</svg>
