<svg width="117" height="117" viewBox="0 0 117 117" fill="none" xmlns="http://www.w3.org/2000/svg">
<g clip-path="url(#clip0_2195_21296)">
<path d="M58.5 117C90.8087 117 117 90.8087 117 58.5C117 26.1913 90.8087 0 58.5 0C26.1913 0 0 26.1913 0 58.5C0 90.8087 26.1913 117 58.5 117Z" fill="#FFD500"/>
<path d="M62.9975 62.3768C33.9414 62.3768 10.291 37.663 10.291 7.21109C10.291 6.18282 10.6995 5.19666 11.4266 4.46956C12.1537 3.74246 13.1398 3.33398 14.1681 3.33398C15.1964 3.33398 16.1826 3.74246 16.9097 4.46956C17.6367 5.19666 18.0452 6.18282 18.0452 7.21109C18.0452 33.3539 38.2173 54.6226 62.9975 54.6226C64.0258 54.6226 65.0119 55.031 65.739 55.7581C66.4661 56.4852 66.8746 57.4714 66.8746 58.4997C66.8746 59.528 66.4661 60.5141 65.739 61.2412C65.0119 61.9683 64.0258 62.3768 62.9975 62.3768Z" fill="#005BBB"/>
<path d="M14.1681 113.666C13.1398 113.666 12.1537 113.257 11.4266 112.53C10.6995 111.803 10.291 110.817 10.291 109.789C10.291 79.3701 33.9414 54.623 62.9975 54.623C63.5067 54.623 64.0108 54.7233 64.4812 54.9182C64.9516 55.113 65.379 55.3986 65.739 55.7586C66.0991 56.1186 66.3846 56.5461 66.5795 57.0164C66.7743 57.4868 66.8746 57.991 66.8746 58.5002C66.8746 59.0093 66.7743 59.5135 66.5795 59.9839C66.3846 60.4542 66.0991 60.8817 65.739 61.2417C65.379 61.6017 64.9516 61.8873 64.4812 62.0821C64.0108 62.277 63.5067 62.3773 62.9975 62.3773C38.2173 62.3773 18.0452 83.646 18.0452 109.789C18.0467 110.298 17.9474 110.803 17.7531 111.274C17.5588 111.745 17.2732 112.173 16.9129 112.534C16.5526 112.894 16.1246 113.179 15.6536 113.374C15.1825 113.568 14.6777 113.667 14.1681 113.666Z" fill="#005BBB"/>
<path d="M99.7522 62.3773H62.9972C61.969 62.3773 60.9828 61.9688 60.2557 61.2417C59.5286 60.5146 59.1201 59.5284 59.1201 58.5002C59.1201 57.4719 59.5286 56.4857 60.2557 55.7586C60.9828 55.0315 61.969 54.623 62.9972 54.623H99.7522C100.261 54.623 100.766 54.7233 101.236 54.9182C101.706 55.113 102.134 55.3986 102.494 55.7586C102.854 56.1186 103.139 56.5461 103.334 57.0164C103.529 57.4868 103.629 57.991 103.629 58.5002C103.629 59.0093 103.529 59.5135 103.334 59.9839C103.139 60.4542 102.854 60.8817 102.494 61.2417C102.134 61.6017 101.706 61.8873 101.236 62.0821C100.766 62.277 100.261 62.3773 99.7522 62.3773Z" fill="#005BBB"/>
<path d="M81.5961 82.6603C80.8197 82.6749 80.0568 82.4554 79.4069 82.0302C78.757 81.6051 78.2502 80.9941 77.9525 80.2768C77.6548 79.5595 77.5801 78.7692 77.738 78.0088C77.8959 77.2485 78.2792 76.5533 78.8378 76.0138L96.2627 58.5004L78.8378 40.9869C78.4792 40.6233 78.1958 40.1925 78.0037 39.7193C77.8116 39.2461 77.7145 38.7396 77.7181 38.2289C77.7217 37.7182 77.8259 37.2132 78.0247 36.7427C78.2234 36.2723 78.5129 35.8456 78.8766 35.487C79.2403 35.1284 79.671 34.8449 80.1442 34.6528C80.6175 34.4607 81.1239 34.3637 81.6346 34.3673C82.1453 34.3709 82.6503 34.475 83.1208 34.6738C83.5913 34.8726 84.018 35.1621 84.3766 35.5257L104.471 55.7753C105.194 56.5001 105.6 57.4821 105.6 58.5059C105.6 59.5297 105.194 60.5117 104.471 61.2365L84.3433 81.5193C83.9842 81.8825 83.5563 82.1704 83.0846 82.3663C82.6129 82.5622 82.1069 82.6622 81.5961 82.6603Z" fill="#005BBB"/>
</g>
<defs>
<clipPath id="clip0_2195_21296">
<rect width="117" height="117" fill="white"/>
</clipPath>
</defs>
</svg>
