<svg width="144" height="131" viewBox="0 0 144 131" fill="none" xmlns="http://www.w3.org/2000/svg">
<g clip-path="url(#clip0_2195_21334)">
<path d="M137.423 65.5063C137.423 82.8912 130.531 99.5639 118.264 111.857C105.997 124.15 89.3591 131.056 72.0107 131.056C54.6624 131.056 38.0246 124.15 25.7575 111.857C13.4904 99.5639 6.59879 82.8912 6.59879 65.5063C6.59622 63.2988 6.7063 61.0926 6.9286 58.8963C7.80808 50.0278 0.992051 23.5436 5.04869 16.0742C10.7324 5.60835 28.652 14.9726 38.887 8.96845C48.8228 3.10959 60.1279 -0.0123692 71.656 -0.0808789C83.1842 -0.149389 94.5254 2.83799 104.53 8.57835C114.534 14.3187 122.846 22.6079 128.623 32.6056C134.399 42.6032 137.435 53.9537 137.423 65.5063Z" fill="#FFD500"/>
<path d="M92.4372 122.208C91.4622 122.21 90.4967 122.016 89.5979 121.638C88.699 121.259 87.8851 120.704 87.2042 120.005L74.0888 106.862H54.2124C52.2387 106.87 50.2827 106.488 48.457 105.737C46.6313 104.985 44.9719 103.879 43.5742 102.483C42.1765 101.086 41.0682 99.4264 40.3129 97.5991C39.5576 95.7718 39.1702 93.8128 39.1732 91.8349V68.1049L27.7178 79.5733C27.0462 80.2667 26.2433 80.8187 25.356 81.197C24.4688 81.5754 23.5151 81.7724 22.5508 81.7767C21.6059 81.7665 20.6708 81.5836 19.7914 81.2368C18.4452 80.6808 17.2963 79.7329 16.4934 78.5157C15.6611 77.2966 15.2236 75.8504 15.2401 74.3734V66.4303H14.9872C11.018 66.4333 7.20996 64.8567 4.40018 62.0472C1.59039 59.2377 0.00877336 55.4252 0.00294586 51.4476V20.9312C5.63336e-05 18.9608 0.384491 17.009 1.1343 15.1875C1.88411 13.3659 2.98461 11.7101 4.37297 10.3148C5.76133 8.91941 7.41035 7.81173 9.22589 7.055C11.0414 6.29826 12.9879 5.90729 14.9542 5.9044H60.6986C62.6678 5.89707 64.6189 6.28108 66.4391 7.0342C68.2592 7.78732 69.9123 8.89461 71.3027 10.292C72.6931 11.6894 73.7932 13.3492 74.5394 15.1754C75.2856 17.0016 75.663 18.9579 75.6499 20.9312V46.3799H99.9788C103.945 46.3799 107.749 47.9581 110.555 50.7676C113.361 53.5771 114.938 57.388 114.941 61.3626V91.9231C114.927 95.8901 113.344 99.6897 110.539 102.49C107.735 105.29 103.938 106.862 99.9788 106.862H99.7369V114.816C99.7401 116.278 99.3076 117.709 98.4948 118.924C97.682 120.138 96.526 121.083 95.1746 121.635C94.3014 121.976 93.374 122.155 92.4372 122.164V122.208ZM46.264 91.9231C46.2595 92.9653 46.4623 93.998 46.8606 94.9608C47.2589 95.9236 47.8447 96.7972 48.5837 97.5306C49.3197 98.2685 50.1939 98.8537 51.156 99.2526C52.1181 99.6515 53.1492 99.8562 54.1904 99.8551H75.474C76.3991 99.8613 77.2842 100.234 77.9366 100.891L92.5471 115.455L92.6241 103.336C92.627 102.402 92.9985 101.507 93.6577 100.847C94.3168 100.186 95.2099 99.8139 96.142 99.811H99.9788C102.078 99.7994 104.087 98.9547 105.567 97.4619C107.046 95.9691 107.875 93.9498 107.872 91.8459V61.2855C107.866 59.1817 107.029 57.1659 105.544 55.6793C104.058 54.1927 102.045 53.3564 99.9458 53.3535H75.518V53.5738C75.0026 57.144 73.221 60.4087 70.4994 62.7698C67.7778 65.1309 64.2984 66.4304 60.6986 66.4303H46.286L46.264 91.9231ZM14.9542 12.9551C13.9111 12.9551 12.8782 13.1617 11.915 13.5631C10.9517 13.9645 10.0772 14.5527 9.34161 15.2939C8.60602 16.0351 8.0239 16.9148 7.62871 17.8822C7.23352 18.8497 7.03306 19.8859 7.03885 20.9312V51.4476C7.03885 52.4892 7.24359 53.5207 7.64138 54.483C8.03916 55.4454 8.62221 56.3198 9.35722 57.0564C10.0922 57.7929 10.9648 58.3772 11.9252 58.7758C12.8855 59.1745 13.9148 59.3796 14.9542 59.3796H18.769C19.231 59.3796 19.6885 59.4708 20.1153 59.648C20.5421 59.8251 20.9299 60.0848 21.2566 60.4122C21.5833 60.7395 21.8424 61.1282 22.0192 61.5559C22.196 61.9836 22.287 62.442 22.287 62.905V75.0234L36.9415 60.4152C37.2653 60.0847 37.6521 59.8227 38.0789 59.6448C38.5057 59.4669 38.9638 59.3768 39.426 59.3796H60.6986C61.7381 59.3796 62.7674 59.1745 63.7277 58.7758C64.6881 58.3772 65.5607 57.7929 66.2957 57.0564C67.0307 56.3198 67.6137 55.4454 68.0115 54.483C68.4093 53.5207 68.614 52.4892 68.614 51.4476V20.9312C68.6025 18.833 67.7664 16.8238 66.2868 15.3391C64.8073 13.8543 62.8035 13.0136 60.7096 12.9992L14.9542 12.9551Z" fill="#005BBB"/>
<path d="M36.9631 43.3058C36.1495 43.3058 34.6984 42.9202 34.0058 40.3313C33.5725 38.6042 33.6714 36.7861 34.2896 35.1164C34.9077 33.4468 36.0162 32.004 37.4688 30.9781C37.9058 30.6927 38.3244 30.38 38.7221 30.0417C39.0087 29.868 39.2299 29.6041 39.3512 29.2913C39.4725 28.9784 39.4871 28.6341 39.3927 28.312C39.2634 27.988 39.0406 27.71 38.7526 27.5137C38.4647 27.3174 38.1248 27.2118 37.7766 27.2104H37.161C36.1917 27.2167 35.2506 27.5375 34.4785 28.1248L34.2477 28.29C33.4119 28.9622 32.3831 29.3483 31.3124 29.3917C30.8233 29.3944 30.3397 29.288 29.8967 29.0803C29.4536 28.8727 29.0622 28.5688 28.7509 28.1909C27.9922 27.3284 27.5942 26.2064 27.6392 25.0576C27.6842 23.9089 28.1689 22.8216 28.9927 22.0215C30.5091 20.5632 32.4212 19.586 34.4895 19.2122C35.3234 19.0492 36.1689 18.9534 37.018 18.9258C41.7783 19.1571 44.8895 20.8757 46.8463 24.357C47.8919 26.0951 48.255 28.1608 47.8649 30.1522C47.4747 32.1437 46.3593 33.9185 44.7356 35.1314C44.2848 35.4949 43.7791 35.8695 43.2734 36.2331C42.7677 36.5966 42.306 36.9381 41.8442 37.3347C40.8666 38.1285 40.1723 39.2186 39.8654 40.4415C39.3267 42.3363 38.3483 43.3058 36.9631 43.3058Z" fill="#005BBB"/>
<path d="M37.3809 52.8798C36.7657 52.8943 36.1542 52.7792 35.586 52.542C35.0179 52.3048 34.5058 51.9507 34.0829 51.5027C33.6679 51.04 33.3554 50.4945 33.1659 49.902C32.9764 49.3096 32.9142 48.6837 32.9835 48.0655C32.9591 47.4677 33.0622 46.8715 33.2859 46.3168C33.5096 45.7621 33.8488 45.2616 34.2807 44.8486C35.0814 44.069 36.1546 43.6341 37.271 43.6367H37.8647C38.7497 43.6927 39.6001 44.0023 40.3146 44.5287C41.0291 45.0551 41.5776 45.7761 41.8949 46.6059C42.2123 47.4357 42.285 48.3394 42.1045 49.2095C41.9241 50.0796 41.498 50.8793 40.8769 51.5137C40.4575 51.9445 39.9567 52.2872 39.4036 52.5217C38.8505 52.7563 38.2563 52.878 37.6558 52.8798H37.3809Z" fill="#005BBB"/>
<path d="M37.4468 52.1751C36.9216 52.1806 36.4009 52.0777 35.9171 51.8727C35.4333 51.6678 34.9968 51.3652 34.6348 50.9838C34.2728 50.6024 33.9931 50.1505 33.813 49.656C33.6329 49.1616 33.5563 48.6353 33.588 48.1099C33.5658 47.6168 33.6434 47.1243 33.8161 46.662C33.9888 46.1997 34.2532 45.7773 34.5932 45.4201C34.9332 45.0629 35.3418 44.7784 35.7944 44.5837C36.2471 44.389 36.7343 44.2881 37.2269 44.2871H37.5567H37.8206C38.3189 44.2865 38.8122 44.3875 39.2703 44.584C39.7284 44.7805 40.1418 45.0684 40.4854 45.4302C40.8289 45.792 41.0953 46.22 41.2685 46.6883C41.4416 47.1566 41.5178 47.6552 41.4924 48.154C41.5213 48.6871 41.4383 49.2203 41.249 49.7194C41.0596 50.2184 40.7681 50.6721 40.3931 51.0514C39.6676 51.762 38.6921 52.1578 37.6777 52.1531L37.4468 52.1751Z" fill="#005BBB"/>
<path d="M60.1268 82.4717C59.2947 82.4643 58.4772 82.2517 57.7464 81.8527C57.0157 81.4536 56.3943 80.8804 55.937 80.1836C55.4798 79.4868 55.2008 78.688 55.1247 77.8575C55.0487 77.0271 55.1778 76.1906 55.5008 75.4221C55.8238 74.6535 56.3306 73.9765 56.9766 73.4508C57.6226 72.925 58.3879 72.5668 59.2048 72.4077C60.0217 72.2486 60.8651 72.2936 61.6605 72.5386C62.456 72.7836 63.179 73.2211 63.7657 73.8125C64.4709 74.5234 64.9503 75.4274 65.1438 76.4108C65.3372 77.3941 65.2359 78.4129 64.8527 79.3387C64.4696 80.2645 63.8216 81.056 62.9904 81.6135C62.1592 82.171 61.182 82.4696 60.1818 82.4717H60.1268Z" fill="#005BBB"/>
<path d="M77.0903 82.4706C75.7515 82.4707 74.467 81.94 73.5174 80.9943C72.5747 80.0411 72.0419 78.7559 72.0332 77.4139C72.03 76.4106 72.3241 75.4289 72.8782 74.5932C73.4323 73.7576 74.2214 73.1055 75.1457 72.7197C76.0699 72.3339 77.0876 72.2317 78.0698 72.4261C79.0521 72.6204 79.9547 73.1026 80.6632 73.8114C81.1352 74.2823 81.5098 74.842 81.7653 75.4583C82.0209 76.0746 82.1524 76.7355 82.1524 77.4029C82.1524 78.0703 82.0209 78.7312 81.7653 79.3475C81.5098 79.9638 81.1352 80.5235 80.6632 80.9943C80.1964 81.4681 79.6399 81.8436 79.0264 82.099C78.4129 82.3544 77.7546 82.4845 77.0903 82.4816V82.4706Z" fill="#005BBB"/>
<path d="M94.1193 82.4716C93.2829 82.4805 92.4574 82.282 91.7163 81.8935C90.9752 81.5051 90.3415 80.9389 89.8718 80.2454C89.4021 79.552 89.111 78.7528 89.0243 77.9192C88.9377 77.0856 89.0583 76.2434 89.3754 75.4679C89.6924 74.6923 90.1961 74.0074 90.8414 73.4743C91.4868 72.9412 92.2538 72.5764 93.074 72.4125C93.8942 72.2486 94.7421 72.2907 95.5422 72.5349C96.3422 72.7792 97.0695 73.2181 97.6592 73.8124C98.622 74.7684 99.1675 76.0677 99.1763 77.4259C99.1763 78.7672 98.6469 80.054 97.7036 81.0055C96.7603 81.957 95.4796 82.4959 94.1412 82.5046L94.1193 82.4716Z" fill="#005BBB"/>
</g>
<defs>
<clipPath id="clip0_2195_21334">
<rect width="144" height="131" fill="white"/>
</clipPath>
</defs>
</svg>
