<svg width="144" height="131" viewBox="0 0 144 131" fill="none" xmlns="http://www.w3.org/2000/svg">
<g clip-path="url(#clip0_2195_21232)">
<path d="M72.0005 130.999C108.104 130.999 137.371 101.671 137.371 65.4938C137.371 29.3161 108.104 -0.0117188 72.0005 -0.0117188C35.8973 -0.0117188 6.62988 29.3161 6.62988 65.4938C6.62988 101.671 35.8973 130.999 72.0005 130.999Z" fill="#FFD500"/>
<path d="M33.3232 129.523C32.7076 129.523 32.0919 129.369 31.5532 129.071C30.5417 128.52 29.8271 127.507 29.6512 126.361L27.0786 109.285C26.9577 108.459 27.1226 107.6 27.5514 106.872L55.0805 59.8531L54.9925 59.6988C49.3416 49.5965 49.3636 37.7755 55.0365 28.0808C60.7204 18.364 71.2747 12.3379 82.5766 12.3379C88.2055 12.3379 93.7575 13.8472 98.6279 16.7115C113.778 25.6131 118.868 45.2118 109.985 60.3929C104.312 70.0766 94.0324 75.8604 82.4776 75.8604H82.2907L82.1918 76.0256L73.7374 90.4576C73.2866 91.1957 72.594 91.7575 71.7804 92.033L64.8212 94.5558L66.0195 101.871C66.1515 102.719 65.9866 103.59 65.5578 104.339C65.118 105.077 64.4364 105.65 63.6338 105.947L56.6856 108.459L57.8839 115.774C58.0159 116.567 57.8729 117.404 57.4991 118.11C57.1253 118.826 56.5097 119.399 55.7841 119.74L34.8404 129.225C34.3677 129.413 33.851 129.523 33.3232 129.523ZM36.2257 120.401L50.1551 114.11L48.8908 106.586C48.7589 105.738 48.9238 104.867 49.3526 104.118C49.7813 103.38 50.463 102.807 51.2765 102.51L58.2358 99.998L57.0374 92.6829C56.9055 91.8346 57.0704 90.9643 57.4991 90.2152C57.9389 89.4771 58.6205 88.9042 59.4231 88.6068L68.0314 85.489L76.8817 70.3741C77.2335 69.7681 77.7502 69.2724 78.3658 68.9419C78.8936 68.6665 79.4982 68.5122 80.1029 68.5122C80.1909 68.5122 80.2898 68.5122 80.3888 68.5232C81.1034 68.5893 81.829 68.6114 82.5326 68.6114C91.3168 68.6114 99.1886 64.1165 103.597 56.5921C106.906 50.9295 107.83 44.3415 106.192 38.0289C104.554 31.7163 100.541 26.4063 94.8899 23.0902C91.1189 20.8759 86.8313 19.6971 82.5106 19.6971C73.9023 19.6971 65.8326 24.3351 61.457 31.8155C56.6526 40.0119 57.0044 50.0151 62.3475 57.9141C62.7433 58.498 62.9632 59.181 62.9962 59.8861C63.0182 60.5912 62.8423 61.2852 62.4795 61.8912L34.5986 109.528L36.2257 120.401ZM87.2161 47.8669C85.1382 47.8669 83.1043 47.316 81.3232 46.2694C78.6407 44.694 76.7167 42.1382 75.9252 39.0755C75.1336 36.0129 75.5624 32.8511 77.1345 30.152C79.2234 26.5715 83.1263 24.3571 87.315 24.3571C89.3929 24.3571 91.4268 24.908 93.2078 25.9546C98.7928 29.2376 100.673 36.4645 97.3965 42.061C95.3077 45.6525 91.4048 47.8669 87.2161 47.8669ZM87.227 31.7494C85.6989 31.7494 84.3246 32.5536 83.5221 33.9087C82.9284 34.9332 82.7525 36.101 83.0383 37.2027C83.3242 38.3043 84.0498 39.2518 85.0612 39.8467C85.7539 40.2543 86.5234 40.4636 87.293 40.4636C88.8212 40.4636 90.2064 39.6594 90.998 38.3043C91.5917 37.2798 91.7676 36.112 91.4817 35.0103C91.1959 33.9087 90.4703 32.9612 89.4588 32.3663C88.7662 31.9697 87.9966 31.7494 87.227 31.7494Z" fill="#005BBB"/>
</g>
<defs>
<clipPath id="clip0_2195_21232">
<rect width="144" height="131" fill="white"/>
</clipPath>
</defs>
</svg>
