<svg width="145" height="131" viewBox="0 0 145 131" fill="none" xmlns="http://www.w3.org/2000/svg">
<g clip-path="url(#clip0_2195_21278)">
<path d="M72.5003 131.011C108.854 131.011 138.325 101.683 138.325 65.5055C138.325 29.3278 108.854 0 72.5003 0C36.1464 0 6.67578 29.3278 6.67578 65.5055C6.67578 101.683 36.1464 131.011 72.5003 131.011Z" fill="#FFD500"/>
<path d="M71.2492 120.809C69.3008 120.809 67.7178 120.379 66.9539 120.126C63.1678 118.859 60.6659 116.193 59.3153 111.963L59.3043 111.93L59.271 111.919C55.9721 111.214 53.0273 109.352 51.3668 107.831C49.4959 106.113 48.0678 103.546 47.4589 100.781L47.4479 100.737L47.4036 100.726C44.8242 100.274 42.4994 99.1061 40.6839 97.3214C38.9015 95.6909 37.5509 93.2342 36.9863 90.6122L36.9753 90.5682L36.931 90.5572C34.5176 90.0724 32.2593 88.8936 30.3773 87.153C27.6429 84.6081 26.0488 81.215 25.8938 77.6015V77.5794L25.8717 77.5574C19.8604 71.6414 15.3105 63.8636 13.3732 56.196C9.97459 42.8437 12.2108 31.221 20.0154 21.6805C27.1116 12.9443 37.7502 7.93164 49.2081 7.93164C55.8171 7.93164 62.404 9.63923 68.2713 12.8892C69.9318 13.8036 72.5002 15.6544 73.884 16.6789L73.9172 16.712L73.9504 16.6789C78.7992 12.9883 84.6887 10.6197 91.4527 9.63923C93.1243 9.42992 94.807 9.31975 96.4565 9.31975C104.947 9.31975 112.951 12.0629 119.605 17.2628C127.708 23.5974 133.022 33.0167 134.195 43.1081C135.446 53.5079 132.159 64.4034 125.162 73.0075L125.14 73.0295V73.0516C125.483 75.1447 125.594 79.1218 122.516 82.3497C120.49 84.4869 117.745 85.8089 114.59 86.1725L114.534 86.1835V86.2386C114.346 89.0589 113.106 91.8571 111.213 93.719C109.431 95.4706 106.697 96.6935 103.918 96.9909H103.863V97.046C103.542 100.318 101.947 103.072 99.2462 104.989C97.2204 106.553 94.7074 106.884 92.9582 106.884C91.9508 106.884 90.9434 106.774 89.9471 106.553L89.9028 106.542L89.8807 106.575C87.7441 109.748 83.9802 113.417 80.5816 116.579L80.3491 116.799C79.9727 117.152 79.6848 117.427 79.5077 117.592L79.3195 117.768C77.0944 119.763 74.2936 120.809 71.2492 120.809ZM66.5554 109.572C67.2639 111.83 68.1274 112.514 69.3783 112.932C69.7104 113.042 70.3857 113.23 71.216 113.23C72.3895 113.23 73.419 112.866 74.2604 112.128C74.4596 111.93 74.8692 111.544 75.4006 111.048C82.2532 104.659 83.792 102.246 84.1351 101.497L84.1462 101.475V101.453C83.958 100.318 83.4709 98.7646 82.696 97.8172C82.1978 97.2113 80.8251 96.363 79.7181 96.363C79.5077 96.363 79.3195 96.396 79.1645 96.4511H79.1535L66.5443 109.539L66.5554 109.572ZM54.8207 98.7756C55.02 100.098 55.7174 101.53 56.5256 102.257C57.6326 103.27 59.3264 104.141 60.832 104.482L60.8652 104.493L73.2751 91.6368V91.6148C73.3415 90.9758 73.4854 88.7945 72.5666 87.7148C71.681 86.6683 70.1754 86.4479 69.0794 86.4479C68.6809 86.4479 68.2713 86.4699 67.8617 86.525H67.8395L54.8097 98.7426L54.8207 98.7756ZM91.4637 99.1061C91.9398 99.2163 92.449 99.2824 92.9472 99.2824C93.8882 99.2824 94.4749 99.0841 94.7184 98.8968C96.058 97.9384 96.5783 96.385 96.1687 94.6003V94.5783L72.6441 70.5948C71.9356 69.8677 71.5481 68.9203 71.5592 67.9067C71.5702 66.8932 71.9799 65.9458 72.7105 65.2407C73.3969 64.5687 74.3489 64.2051 75.3674 64.2051C76.408 64.2051 77.4044 64.6127 78.1018 65.3178L101.626 89.3012H101.637C101.859 89.4114 102.202 89.4775 102.612 89.4775C103.774 89.4775 105.246 88.9597 105.9 88.3208C106.796 87.4394 107.25 85.4784 106.774 84.52L83.5263 61.1645C82.0539 59.6772 82.065 57.2756 83.5484 55.8104C84.2348 55.1383 85.209 54.7417 86.2274 54.7417C87.257 54.7417 88.2423 55.1383 88.9286 55.8214L111.656 78.6481H111.678C112.066 78.6921 112.431 78.7142 112.796 78.7142C114.568 78.7142 116.029 78.1743 117.014 77.1388C117.9 76.2023 117.778 74.8693 117.623 74.1642V74.1422L86.15 42.3039L86.1057 42.3479C82.9063 45.4767 77.1387 51.0842 74.5371 53.4969C70.6071 57.1434 65.714 59.1595 60.7766 59.1595C56.6252 59.1595 52.7949 57.7603 49.7062 55.1053C46.5954 52.4392 45.9644 49.5969 45.9755 47.68C46.0087 43.3725 49.2634 40.3319 49.9166 39.759L68.2159 21.9339L68.1606 21.8898C66.5775 20.7441 65.3376 19.9178 64.5848 19.5102C59.8467 16.8993 54.544 15.5112 49.2191 15.5112C40.0639 15.5112 31.584 19.4992 25.9492 26.4508C19.6612 34.1625 17.9674 43.2843 20.7793 54.3451C22.2295 60.0849 25.4289 65.8686 29.7795 70.6169L29.8238 70.6609L40.23 60.6357C40.3407 60.5365 40.4403 60.4374 40.551 60.3603C42.5215 58.851 45.2559 57.9366 47.8575 57.9366C50.2044 57.9366 53.6141 58.6637 56.5145 62.134C58.0312 63.9407 58.9832 66.0449 59.271 68.2042L59.2821 68.2593L59.7028 68.2483C62.415 68.2483 64.8395 69.2287 66.7214 71.0796C68.8469 73.1727 70.0425 75.7837 70.2639 78.8464V78.9015H70.3193C73.7068 79.1769 76.4191 80.4879 78.3785 82.8014C79.7402 84.3988 80.5705 86.4038 80.8472 88.7724V88.8165L80.8915 88.8275C84.3676 89.2462 87.2016 91.3504 88.5854 93.0249C90.2349 95.03 91.032 97.4096 91.4195 99.0621L91.4305 99.0951L91.4637 99.1061ZM44.3703 88.5631C44.5364 89.8521 45.1452 91.119 45.9423 91.8461C47.1158 92.9919 48.4885 93.2893 49.4405 93.3334H49.4627L62.5922 81.0056V80.9836C62.7693 79.926 62.8357 77.921 61.3523 76.4668C60.9316 76.0481 60.3781 75.8498 59.6585 75.8498C58.5072 75.8498 57.3227 76.3566 56.7138 76.654L44.3592 88.5301L44.3703 88.5631ZM33.5545 77.6566C33.7095 79.1328 34.4402 80.5429 35.5915 81.6226C36.5767 82.537 37.7613 83.0988 38.9126 83.209H38.9458L51.4221 71.2118V71.2007C51.7321 70.5838 52.2856 68.9423 50.6472 66.9924C49.8391 66.0229 48.8759 65.5271 47.8132 65.5271C46.6619 65.5271 45.6655 66.067 45.2891 66.2983L33.5435 77.6345L33.5545 77.6566ZM86.2164 33.16C87.2348 33.171 88.209 33.5786 88.9065 34.2947L120.645 66.3975L120.69 66.3313C125.45 59.6222 127.564 51.6791 126.634 43.9784C125.693 35.8701 121.42 28.3016 114.911 23.2119C109.608 19.0696 103.209 16.8882 96.4122 16.8882C95.128 16.8882 93.7996 16.9764 92.4822 17.1306C86.1167 18.056 80.7808 20.4687 76.6516 24.3025L55.1196 45.2784C55.0422 45.3445 54.9757 45.4106 54.8982 45.4767C54.5661 45.7631 53.5698 46.8868 53.5698 47.7351C53.5698 48.1978 53.9351 48.7376 54.6547 49.3656C56.3374 50.8088 58.4408 51.5689 60.7545 51.5689C63.7767 51.5689 66.821 50.28 69.323 47.9554C72.3562 45.1462 80.1609 37.5226 83.3824 34.3718L83.5152 34.2396C84.2348 33.5455 85.1758 33.16 86.1832 33.16H86.2164Z" fill="#005BBB"/>
</g>
<defs>
<clipPath id="clip0_2195_21278">
<rect width="145" height="131" fill="white"/>
</clipPath>
</defs>
</svg>
