<svg width="144" height="131" viewBox="0 0 144 131" fill="none" xmlns="http://www.w3.org/2000/svg">
<path d="M72.0005 131C108.104 131 137.371 101.675 137.371 65.5C137.371 29.3253 108.104 0 72.0005 0C35.8973 0 6.62988 29.3253 6.62988 65.5C6.62988 101.675 35.8973 131 72.0005 131Z" fill="#FFD500"/>
<path d="M65.6569 80.0085C64.6564 80.0085 63.7549 79.6119 62.9743 78.8298L58.4008 74.0049C57.7082 73.3109 57.3344 72.3635 57.3564 71.3721C57.3784 70.3696 57.8181 69.4113 58.5547 68.7503C59.2144 68.0894 60.1159 67.7148 61.0724 67.7148C62.1058 67.7148 63.0953 68.1555 63.7879 68.9266L65.525 70.8654L71.3188 64.5974C71.9895 63.8483 72.9679 63.4297 74.0563 63.4297C74.9688 63.4297 75.8814 63.7271 76.618 64.2669C77.3985 64.9609 77.8053 65.8862 77.8273 66.8997C77.8493 67.8691 77.4865 68.8384 76.8488 69.5545L68.3394 78.8188C67.7787 79.5348 66.7343 80.0085 65.6569 80.0085Z" fill="#005BBB"/>
<path d="M32.8725 118.894C27.5514 118.894 23.2197 114.554 23.2197 109.222V17.6035C23.2197 12.2719 27.5514 7.93164 32.8725 7.93164H77.7282C80.2678 7.93164 82.6315 8.89002 84.5775 10.6966L109.611 35.7796C111.381 37.5532 112.392 40.0537 112.392 42.6645V62.3167L104.927 69.7964V43.9423H86.1057C80.7845 43.9423 76.4529 39.6021 76.4529 34.2704V15.4224H32.8725C31.6302 15.4224 30.6957 16.3587 30.6957 17.6035V109.233C30.6957 110.423 31.6961 111.414 32.8725 111.414H102.751C103.762 111.414 104.576 110.786 104.84 109.883H104.807V106.237L112.271 98.757V109.222C112.271 114.554 107.94 118.894 102.619 118.894H32.8725ZM83.9288 34.1493C83.9288 35.4271 84.9073 36.4626 86.1057 36.4626H99.6833L83.9288 20.6659V34.1493Z" fill="#005BBB"/>
<path d="M90.1733 105.741C89.2938 105.741 88.4472 105.312 87.9085 104.607C87.3588 103.869 87.1939 102.932 87.4468 102.007L89.5137 92.7207C89.5466 92.0708 89.9974 91.553 90.1953 91.3547L93.2516 88.4355L104.51 99.7157L101.464 102.767C101.123 103.109 100.662 103.395 100.222 103.538L90.789 105.653C90.6021 105.719 90.3932 105.741 90.1733 105.741Z" fill="#005BBB"/>
<path d="M121.355 60.2718L96.4004 85.2754L107.673 96.5698L132.627 71.5663L121.355 60.2718Z" fill="#005BBB"/>
<path d="M124.244 57.2387L129.521 52.0833C130.06 51.5435 130.764 51.2461 131.522 51.2461C132.27 51.2461 132.984 51.5435 133.523 52.0833L140.79 59.3647C141.351 59.9266 141.637 60.6426 141.615 61.4027C141.593 62.1628 141.241 62.8788 140.636 63.4075L135.524 68.5299L124.244 57.2387Z" fill="#005BBB"/>
<path d="M67.8779 94.6928C54.8829 94.6928 44.3066 84.0956 44.3066 71.0749C44.3066 58.0542 54.8829 47.457 67.8779 47.457C80.7519 47.457 91.3282 58.0542 91.4491 71.0749C91.4491 84.0956 80.8728 94.6928 67.8779 94.6928ZM67.8779 54.8156C58.9947 54.8156 51.7716 62.053 51.7716 70.9538C51.7716 79.8545 58.9947 87.0919 67.8779 87.0919C76.7611 87.0919 83.9842 79.8545 83.9842 70.9538C83.9842 62.053 76.7501 54.8156 67.8779 54.8156Z" fill="#005BBB"/>
</svg>
