<svg width="144" height="131" viewBox="0 0 144 131" fill="none" xmlns="http://www.w3.org/2000/svg">
<g clip-path="url(#clip0_2195_21281)">
<path d="M72.0005 131.011C108.104 131.011 137.371 101.683 137.371 65.5055C137.371 29.3278 108.104 0 72.0005 0C35.8973 0 6.62988 29.3278 6.62988 65.5055C6.62988 101.683 35.8973 131.011 72.0005 131.011Z" fill="#FFD500"/>
<path d="M62.4904 107.403C62.0177 107.403 61.5999 107.326 61.1931 107.172C59.6539 106.632 58.6095 105.255 58.5106 103.657L57.0593 76.413L17.2059 64.3387C14.5344 63.5345 12.6874 61.2099 12.5115 58.4117C12.3576 55.6134 13.9077 53.0575 16.4803 51.9008L16.5793 51.8457L120.407 9.50839C120.891 9.31009 121.396 9.21094 121.913 9.21094C122.837 9.21094 123.727 9.53042 124.442 10.1253C125.552 11.0397 126.091 12.549 125.816 13.9812L108.94 100.088L108.918 100.11L108.874 100.253V100.43C108.182 103.448 105.455 105.629 102.41 105.629C101.058 105.629 99.7492 105.222 98.6498 104.44L79.1354 90.911L65.4698 106.07C64.6892 106.94 63.6558 107.403 62.4904 107.403ZM67.1079 72.8987L101.486 96.7389L115.317 26.1657L67.1079 72.8987ZM65.9095 93.6762L72.5499 86.3281L65.2609 81.2714L65.9095 93.6762ZM23.0877 57.7947L59.7859 68.9106L106.159 23.9183L23.0877 57.7947Z" fill="#005BBB"/>
</g>
<defs>
<clipPath id="clip0_2195_21281">
<rect width="144" height="131" fill="white"/>
</clipPath>
</defs>
</svg>
