<svg width="117" height="117" viewBox="0 0 117 117" fill="none" xmlns="http://www.w3.org/2000/svg">
<g clip-path="url(#clip0_2195_21246)">
<path d="M58.5 117C90.8087 117 117 90.8087 117 58.5C117 26.1913 90.8087 0 58.5 0C26.1913 0 0 26.1913 0 58.5C0 90.8087 26.1913 117 58.5 117Z" fill="#FFD500"/>
<path d="M58.5664 107.527C31.4599 107.527 9.40473 85.4722 9.40473 58.3657C9.40473 45.3718 14.3785 33.2974 23.1075 24.2582H9.13887C6.7683 24.2582 4.84082 22.3307 4.84082 19.9602C4.84082 17.5896 6.7683 15.6621 9.13887 15.6621H35.337C37.2645 15.6621 38.9594 16.9471 39.4689 18.797C39.9896 20.658 39.2031 22.6298 37.5636 23.6268C25.3119 31.0598 17.9897 44.0425 17.9897 58.3546C17.9897 80.731 36.19 98.9313 58.5664 98.9313C60.937 98.9313 62.8645 100.859 62.8645 103.229C62.8645 105.6 60.937 107.527 58.5664 107.527Z" fill="#205BA6"/>
<path d="M32.4126 50.7554C32.2575 50.7554 32.0913 50.7443 31.9362 50.7332C29.5767 50.4674 27.8819 48.3516 28.1367 45.9921L31.0611 19.4948C31.3159 17.1353 33.4317 15.4405 35.8023 15.6953C38.1618 15.9611 39.8566 18.0769 39.6018 20.4364L36.6774 46.9337C36.4337 49.1381 34.5727 50.7554 32.4126 50.7554Z" fill="#205BA6"/>
<path d="M107.994 101.059H81.796C79.8685 101.059 78.1737 99.7736 77.6641 97.9237C77.1546 96.0738 77.93 94.0909 79.5694 93.0939C91.8211 85.661 99.1433 72.6782 99.1433 58.3661C99.1433 35.9897 80.943 17.7895 58.5666 17.7895C56.196 17.7895 54.2686 15.862 54.2686 13.4914C54.2686 11.1208 56.196 9.19336 58.5666 9.19336C85.6731 9.19336 107.728 31.2486 107.728 58.3551C107.728 71.3489 102.755 83.4233 94.0255 92.4625H107.994C110.365 92.4625 112.292 94.39 112.292 96.7606C112.292 99.1311 110.365 101.059 107.994 101.059Z" fill="#205BA6"/>
<path d="M81.7963 101.059C81.6855 101.059 81.5747 101.059 81.4639 101.048C79.1044 100.871 77.332 98.8103 77.5093 96.4508L79.4589 69.9535C79.6362 67.5829 81.6855 65.7884 84.0561 65.9878C86.4266 66.165 88.199 68.2254 88.0218 70.5849L87.9664 71.2828C88.0218 71.6262 88.0439 71.9918 88.0107 72.3573L86.0721 97.0933C85.8949 99.342 84.0228 101.059 81.7963 101.059Z" fill="#205BA6"/>
</g>
<defs>
<clipPath id="clip0_2195_21246">
<rect width="117" height="117" fill="white"/>
</clipPath>
</defs>
</svg>
