<svg width="117" height="117" viewBox="0 0 117 117" fill="none" xmlns="http://www.w3.org/2000/svg">
<g clip-path="url(#clip0_2195_21243)">
<path d="M58.5 117C90.8087 117 117 90.8087 117 58.5C117 26.1913 90.8087 0 58.5 0C26.1913 0 0 26.1913 0 58.5C0 90.8087 26.1913 117 58.5 117Z" fill="#FFD500"/>
<path d="M58.5001 107.109C55.9634 107.109 53.5485 106.311 51.5102 104.815C50.0258 103.719 48.2535 102.489 46.2041 101.06C31.2385 90.6474 6.19238 73.2226 6.19238 50.2812C6.19238 46.6146 6.90134 42.7153 8.23063 39.0265C8.89528 37.1766 9.72609 35.371 10.6898 33.6318C11.6979 31.8483 12.8389 30.1756 14.0906 28.6469C19.8398 21.6238 27.7934 17.7578 36.467 17.7578C42.7147 17.7578 48.2867 19.5745 53.0278 23.1747C55.3319 24.9249 57.1376 26.8856 58.5112 28.6913C59.7075 27.1183 61.2362 25.4345 63.1305 23.8726C64.8475 22.4546 66.5977 21.3358 68.4587 20.4275C69.3006 20.0176 70.1868 19.6521 71.0841 19.3308C74.0307 18.2895 77.2099 17.7578 80.5331 17.7578C83.9782 17.7578 87.3236 18.356 90.4585 19.5413C92.4193 20.2835 94.3246 21.2583 96.108 22.4436C97.8029 23.5735 99.4091 24.8917 100.871 26.3761C107.097 32.6681 110.808 41.6076 110.808 50.2812C110.808 58.556 107.451 66.9638 100.838 75.2719C99.3648 77.1218 97.6921 79.0272 95.8422 80.9214C94.7123 82.0845 93.5048 83.2588 92.2531 84.4219C91.6438 84.9868 91.0346 85.5407 90.4142 86.0946C88.664 87.6454 86.7697 89.2295 84.7758 90.8136C79.802 94.7682 74.8061 98.2465 70.785 101.038C68.7357 102.467 66.9633 103.697 65.4789 104.793C65.2352 104.971 65.0026 105.115 64.7589 105.259L64.6592 105.314C62.7981 106.488 60.6602 107.109 58.5001 107.109ZM36.467 25.512C28.3805 25.512 23.0966 29.8876 20.0946 33.5653C19.1308 34.7506 18.2446 36.0467 17.4581 37.4314C16.7049 38.7828 16.0513 40.2118 15.5307 41.6629C14.5005 44.5209 13.9466 47.5008 13.9466 50.2923C13.9466 69.1793 36.9101 85.153 50.624 94.6907C52.7177 96.1529 54.5344 97.4157 56.1074 98.5678C57.3813 99.5094 59.1426 99.6312 60.6159 98.7229L60.9814 98.5013C62.4658 97.4047 64.2825 96.1418 66.3762 94.6907C70.2976 91.9656 75.1827 88.5649 79.9682 84.7542C81.8514 83.2588 83.6348 81.7633 85.2743 80.3122C85.8503 79.8026 86.4263 79.282 86.9913 78.7502C88.1433 77.6757 89.2511 76.5901 90.2924 75.5267C91.954 73.8097 93.4605 72.1038 94.7787 70.4532C100.273 63.5409 103.065 56.7615 103.065 50.2812C103.065 43.7012 100.118 36.6227 95.3658 31.8262C94.2692 30.7184 93.0728 29.7215 91.8211 28.8906C90.525 28.0266 89.1514 27.3287 87.7335 26.7859C85.4737 25.933 83.0588 25.5009 80.5442 25.5009C78.1072 25.5009 75.792 25.8776 73.6873 26.6308C73.0559 26.8524 72.4355 27.1183 71.8373 27.4063C70.5413 28.0377 69.3006 28.8353 68.071 29.8544C63.8948 33.2995 62.1335 37.6307 62.1224 37.6751C61.5353 39.1594 60.1174 40.1786 58.489 40.1343C56.8939 40.1232 55.4538 39.1373 54.8888 37.6418C54.8778 37.6086 52.9835 32.8674 48.3532 29.3559C44.9856 26.8081 40.9866 25.512 36.467 25.512Z" fill="#205BA6"/>
</g>
<defs>
<clipPath id="clip0_2195_21243">
<rect width="117" height="117" fill="white"/>
</clipPath>
</defs>
</svg>
