<svg width="88" height="59" viewBox="0 0 88 59" fill="none" xmlns="http://www.w3.org/2000/svg">
<g clip-path="url(#clip0_2195_21258)">
<path d="M59.5395 31.0491L32.8695 4.53906L6.18945 31.0491H14.8095V54.1391H50.9195V31.0491H59.5395Z" fill="#FFD500"/>
<path d="M32.8695 4.53906L59.5495 31.0591H50.9295V54.1491H14.8095V31.0491H6.18954L32.8695 4.53906ZM32.8695 0.539062C31.8495 0.539062 30.8295 0.929063 30.0495 1.69906L3.36954 28.2191C2.21954 29.3591 1.86954 31.0791 2.48954 32.5791C3.10954 34.0791 4.56954 35.0491 6.18954 35.0491H10.8095V54.1391C10.8095 56.3491 12.5995 58.1391 14.8095 58.1391H50.9195C53.1295 58.1391 54.9195 56.3491 54.9195 54.1391V35.0491H59.5395C61.1595 35.0491 62.6195 34.0691 63.2395 32.5791C63.8595 31.0791 63.5095 29.3591 62.3595 28.2191L35.6895 1.69906C34.9095 0.919063 33.8895 0.539062 32.8695 0.539062Z" fill="#005BBB"/>
<path d="M38.5402 37.3594H27.2002V54.1394H38.5402V37.3594Z" fill="#005BBB"/>
<path d="M81.6195 31.0491L54.9495 4.53906L28.2695 31.0491H36.8895V54.1391H72.9995V31.0491H81.6195Z" fill="#FFD500"/>
<path d="M54.9496 4.53906L81.6296 31.0591H72.9996V54.1491H36.8896V31.0491H28.2696L54.9496 4.53906ZM54.9496 0.539062C53.9296 0.539062 52.9096 0.929063 52.1296 1.69906L25.4496 28.2191C24.2996 29.3591 23.9496 31.0791 24.5696 32.5791C25.1896 34.0791 26.6496 35.0491 28.2696 35.0491H32.8896V54.1391C32.8896 56.3491 34.6796 58.1391 36.8896 58.1391H72.9996C75.2096 58.1391 76.9996 56.3491 76.9996 54.1391V35.0491H81.6196C83.2396 35.0491 84.6996 34.0691 85.3196 32.5791C85.9396 31.0791 85.5896 29.3591 84.4396 28.2191L57.7696 1.69906C56.9896 0.919063 55.9696 0.539062 54.9496 0.539062Z" fill="#005BBB"/>
<path d="M60.6193 37.3594H49.2793V54.1394H60.6193V37.3594Z" fill="#005BBB"/>
</g>
<defs>
<clipPath id="clip0_2195_21258">
<rect width="87.82" height="58.55" fill="white"/>
</clipPath>
</defs>
</svg>
