<svg width="27" height="27" viewBox="0 0 27 27" fill="none" xmlns="http://www.w3.org/2000/svg">
<path d="M7.95245 0.960938H18.8022C22.9355 0.960938 26.2937 4.3192 26.2937 8.45245V19.3022C26.2937 21.2891 25.5044 23.1946 24.0995 24.5995C22.6946 26.0044 20.7891 26.7937 18.8022 26.7937H7.95245C3.8192 26.7937 0.460938 23.4355 0.460938 19.3022V8.45245C0.460938 6.46557 1.25022 4.56008 2.65515 3.15515C4.06008 1.75022 5.96557 0.960938 7.95245 0.960938ZM7.69412 3.54422C6.46089 3.54422 5.27817 4.03412 4.40614 4.90614C3.53412 5.77817 3.04422 6.96089 3.04422 8.19412V19.5605C3.04422 22.1309 5.12376 24.2104 7.69412 24.2104H19.0605C20.2938 24.2104 21.4765 23.7205 22.3485 22.8485C23.2205 21.9765 23.7104 20.7938 23.7104 19.5605V8.19412C23.7104 5.62376 21.6309 3.54422 19.0605 3.54422H7.69412ZM20.1584 5.48168C20.5866 5.48168 20.9973 5.65178 21.3001 5.95457C21.6029 6.25735 21.773 6.66802 21.773 7.09622C21.773 7.52443 21.6029 7.9351 21.3001 8.23788C20.9973 8.54067 20.5866 8.71077 20.1584 8.71077C19.7302 8.71077 19.3196 8.54067 19.0168 8.23788C18.714 7.9351 18.5439 7.52443 18.5439 7.09622C18.5439 6.66802 18.714 6.25735 19.0168 5.95457C19.3196 5.65178 19.7302 5.48168 20.1584 5.48168ZM13.3773 7.41913C15.0902 7.41913 16.7328 8.09955 17.944 9.3107C19.1551 10.5218 19.8355 12.1645 19.8355 13.8773C19.8355 15.5902 19.1551 17.2328 17.944 18.444C16.7328 19.6551 15.0902 20.3355 13.3773 20.3355C11.6645 20.3355 10.0218 19.6551 8.8107 18.444C7.59955 17.2328 6.91913 15.5902 6.91913 13.8773C6.91913 12.1645 7.59955 10.5218 8.8107 9.3107C10.0218 8.09955 11.6645 7.41913 13.3773 7.41913ZM13.3773 10.0024C12.3496 10.0024 11.364 10.4107 10.6373 11.1373C9.91066 11.864 9.50241 12.8496 9.50241 13.8773C9.50241 14.905 9.91066 15.8906 10.6373 16.6173C11.364 17.344 12.3496 17.7522 13.3773 17.7522C14.405 17.7522 15.3906 17.344 16.1173 16.6173C16.844 15.8906 17.2522 14.905 17.2522 13.8773C17.2522 12.8496 16.844 11.864 16.1173 11.1373C15.3906 10.4107 14.405 10.0024 13.3773 10.0024Z" fill="white"/>
</svg>
