<svg width="29" height="24" viewBox="0 0 29 24" fill="none" xmlns="http://www.w3.org/2000/svg">
<path d="M28.9982 2.868C27.9309 3.35315 26.7804 3.67197 25.5883 3.82445C26.8081 3.08979 27.7507 1.92542 28.1943 0.525409C27.0438 1.21848 25.7685 1.70364 24.424 1.98087C23.3289 0.788778 21.7903 0.0957031 20.0437 0.0957031C16.7863 0.0957031 14.1249 2.75711 14.1249 6.04228C14.1249 6.51358 14.1803 6.97101 14.2773 7.40071C9.34265 7.1512 4.94855 4.78089 2.02378 1.19076C1.5109 2.06404 1.21981 3.08979 1.21981 4.17098C1.21981 6.23635 2.25942 8.06606 3.86736 9.10568C2.88319 9.10568 1.96833 8.82845 1.16437 8.4126V8.45418C1.16437 11.3374 3.21587 13.7493 5.93272 14.2899C5.06045 14.5286 4.14472 14.5618 3.25745 14.3869C3.63394 15.5686 4.37127 16.6025 5.36581 17.3435C6.36034 18.0844 7.56207 18.495 8.80205 18.5176C6.70013 20.1816 4.09468 21.0811 1.41387 21.0681C0.942582 21.0681 0.471291 21.0404 0 20.985C2.63368 22.6761 5.76638 23.6602 9.12086 23.6602C20.0437 23.6602 26.0458 14.5948 26.0458 6.73536C26.0458 6.47199 26.0457 6.22248 26.0319 5.95911C27.1963 5.12743 28.1943 4.07395 28.9982 2.868Z" fill="white"/>
</svg>
