<?xml version="1.0" encoding="utf-8"?>
<!-- Generator: Adobe Illustrator 24.1.0, SVG Export Plug-In . SVG Version: 6.00 Build 0)  -->
<svg version="1.1" id="Layer_1" xmlns="http://www.w3.org/2000/svg" xmlns:xlink="http://www.w3.org/1999/xlink" x="0px" y="0px"
	 viewBox="0 0 21 21" style="enable-background:new 0 0 21 21;" xml:space="preserve">
<style type="text/css">
	.st0{clip-path:url(#SVGID_2_);}
	.st1{fill:#4F4F4F;}
</style>
<g>
	<defs>
		<rect id="SVGID_1_" x="0.4" y="0.7" width="20.3" height="20.3"/>
	</defs>
	<clipPath id="SVGID_2_">
		<use xlink:href="#SVGID_1_"  style="overflow:visible;"/>
	</clipPath>
	<g class="st0">
		<path class="st1" d="M20.6,6.6c0-1.1-0.2-1.8-0.5-2.5c-0.3-0.7-0.7-1.3-1.2-1.8c-0.5-0.5-1.1-0.9-1.8-1.2
			c-0.6-0.2-1.4-0.4-2.5-0.5c-1.1-0.1-1.4-0.1-4.2-0.1c-2.8,0-3.1,0-4.2,0.1C5.3,0.8,4.6,1,3.9,1.2C3.2,1.5,2.6,1.9,2.1,2.4
			C1.6,2.9,1.2,3.5,1,4.2C0.7,4.8,0.5,5.6,0.5,6.6c-0.1,1.1-0.1,1.4-0.1,4.2c0,2.8,0,3.1,0.1,4.2c0,1.1,0.2,1.8,0.5,2.5
			c0.3,0.7,0.7,1.3,1.2,1.8c0.5,0.5,1.1,0.9,1.8,1.2c0.6,0.2,1.4,0.4,2.5,0.5c1.1,0,1.4,0.1,4.2,0.1c2.8,0,3.1,0,4.2-0.1
			c1.1,0,1.8-0.2,2.5-0.5c1.4-0.5,2.4-1.6,3-3c0.2-0.6,0.4-1.4,0.5-2.5c0-1.1,0.1-1.4,0.1-4.2C20.7,8.1,20.7,7.7,20.6,6.6z
			 M18.8,14.9c0,1-0.2,1.5-0.3,1.9c-0.3,0.9-1,1.6-1.9,1.9c-0.4,0.1-0.9,0.3-1.9,0.3c-1.1,0-1.4,0.1-4.1,0.1c-2.7,0-3,0-4.1-0.1
			c-1,0-1.5-0.2-1.9-0.3c-0.4-0.2-0.8-0.4-1.2-0.8c-0.3-0.3-0.6-0.7-0.8-1.2c-0.1-0.4-0.3-0.9-0.3-1.9c0-1.1-0.1-1.4-0.1-4.1
			c0-2.7,0-3,0.1-4.1c0-1,0.2-1.5,0.3-1.9C2.8,4.4,3.1,4,3.4,3.7c0.3-0.3,0.7-0.6,1.2-0.8c0.4-0.1,0.9-0.3,1.9-0.3
			c1.1,0,1.4-0.1,4.1-0.1c2.7,0,3,0,4.1,0.1c1,0,1.5,0.2,1.9,0.3c0.4,0.2,0.8,0.4,1.2,0.8C18,4,18.3,4.4,18.5,4.9
			c0.1,0.4,0.3,0.9,0.3,1.9c0,1.1,0.1,1.4,0.1,4.1C18.9,13.5,18.8,13.8,18.8,14.9z"/>
		<path class="st1" d="M10.6,5.6c-2.9,0-5.2,2.3-5.2,5.2c0,2.9,2.3,5.2,5.2,5.2c2.9,0,5.2-2.3,5.2-5.2C15.8,7.9,13.4,5.6,10.6,5.6z
			 M10.6,14.2c-1.9,0-3.4-1.5-3.4-3.4c0-1.9,1.5-3.4,3.4-3.4c1.9,0,3.4,1.5,3.4,3.4C13.9,12.7,12.4,14.2,10.6,14.2z"/>
		<path class="st1" d="M17.2,5.4c0,0.7-0.5,1.2-1.2,1.2c-0.7,0-1.2-0.5-1.2-1.2c0-0.7,0.5-1.2,1.2-1.2C16.6,4.2,17.2,4.7,17.2,5.4z"
			/>
	</g>
</g>
</svg>
