<svg width="21" height="21" viewBox="0 0 21 21" fill="none" xmlns="http://www.w3.org/2000/svg">
<path d="M19.2107 21L11.9837 13.7722C8.7688 16.0577 4.33877 15.4987 1.79251 12.4862C-0.753754 9.47365 -0.566789 5.01267 2.22262 2.22375C5.01129 -0.56639 9.47298 -0.754152 12.4862 1.79182C15.4995 4.3378 16.0589 8.76799 13.7731 11.983L21 19.2108L19.2119 20.9987L19.2107 21ZM7.58686 2.52974C5.18889 2.5292 3.12006 4.21237 2.63293 6.5602C2.14581 8.90803 3.37426 11.2752 5.57455 12.2286C7.77483 13.182 10.3422 12.4595 11.7223 10.4986C13.1023 8.53764 12.9158 5.87723 11.2756 4.12806L12.0406 4.88674L11.1782 4.0269L11.163 4.01172C10.2169 3.05979 8.92905 2.52612 7.58686 2.52974Z" fill="white" fill-opacity="0.89"/>
</svg>
