<?xml version="1.0" encoding="utf-8"?>
<!-- Generator: Adobe Illustrator 24.1.0, SVG Export Plug-In . SVG Version: 6.00 Build 0)  -->
<svg version="1.1" id="Layer_1" xmlns="http://www.w3.org/2000/svg" xmlns:xlink="http://www.w3.org/1999/xlink" x="0px" y="0px"
	 viewBox="0 0 24.8 20.7" style="enable-background:new 0 0 24.8 20.7;" xml:space="preserve">
<style type="text/css">
	.st0{fill:none;stroke:#4F4F4F;stroke-width:1.9296;}
</style>
<path class="st0" d="M7.5,19.1c8,0,12.3-6.5,12.3-12.1c0-0.2,0-0.4,0-0.6c0.8-0.6,1.6-1.4,2.2-2.2c-0.8,0.3-1.6,0.6-2.5,0.7
	c0.9-0.5,1.6-1.4,1.9-2.4c-0.8,0.5-1.8,0.8-2.7,1c-0.7-0.7-1.5-1.1-2.5-1.3c-0.9-0.2-1.9,0-2.7,0.4c-0.8,0.4-1.5,1.1-1.9,2
	c-0.4,0.9-0.5,1.8-0.3,2.7C9.5,7.4,7.8,6.9,6.3,6.2C4.8,5.4,3.4,4.3,2.3,3C1.8,3.9,1.6,5,1.8,6.1c0.2,1.1,0.9,2,1.8,2.6
	c-0.7,0-1.4-0.2-2-0.5v0.1c0,1,0.3,1.9,1,2.7c0.6,0.8,1.5,1.3,2.5,1.5c-0.6,0.2-1.3,0.2-2,0.1C3.5,13.3,4,14,4.7,14.6
	c0.7,0.5,1.6,0.8,2.5,0.8c-1.5,1.2-3.4,1.8-5.4,1.8c-0.3,0-0.7,0-1-0.1C2.8,18.4,5.1,19.1,7.5,19.1z"/>
</svg>
