<svg width="133" height="28" viewBox="0 0 133 28" fill="none" xmlns="http://www.w3.org/2000/svg">
<path fill-rule="evenodd" clip-rule="evenodd" d="M56.2892 21.9633C55.5272 21.9633 55.077 22.4141 55.077 23.1777C55.077 23.9409 55.5272 24.3918 56.2892 24.3918C57.0511 24.3918 57.5013 23.9409 57.5013 23.1777C57.5013 22.4142 57.0856 21.9633 56.2892 21.9633ZM133 23.0387V24.045C133 24.149 132.931 24.2182 132.793 24.2182H130.922C129.26 24.2182 128.152 23.1082 128.152 21.4428V13.0464H125.381C125.243 13.0464 125.208 13.0114 125.208 12.8383V11.8319C125.208 11.6929 125.243 11.6238 125.381 11.6238H129.606C129.634 11.6226 129.661 11.6272 129.687 11.6372C129.713 11.6472 129.736 11.6625 129.756 11.6821C129.775 11.7016 129.791 11.7251 129.801 11.7508C129.811 11.7766 129.815 11.8042 129.814 11.8319V21.2692C129.814 22.2755 130.299 22.8305 131.303 22.8305H132.827C132.931 22.8651 133 22.9 133 23.0387ZM117.139 21.8937C117.139 20.957 117.693 20.4711 118.905 20.4711H120.844V22.5183C120.172 22.8768 119.424 23.0674 118.662 23.0736C117.623 23.0736 117.139 22.5878 117.139 21.8937V21.8937ZM119.39 17.2444C120.394 17.2444 120.879 17.7648 120.879 18.8057V19.2571H118.974C116.688 19.2571 115.476 20.1939 115.476 21.9633C115.476 23.351 116.48 24.3228 118.351 24.3228C119.321 24.3335 120.269 24.0291 121.052 23.4551L121.191 24.0105C121.26 24.1492 121.294 24.2186 121.433 24.2186H122.299C122.327 24.2226 122.356 24.22 122.383 24.211C122.41 24.2019 122.434 24.1867 122.455 24.1665C122.475 24.1463 122.49 24.1217 122.499 24.0947C122.508 24.0676 122.511 24.0388 122.507 24.0105V18.6325C122.507 16.9321 121.398 15.8218 119.701 15.8218H116.411C116.383 15.8178 116.354 15.8204 116.327 15.8294C116.3 15.8385 116.276 15.8537 116.256 15.8739C116.235 15.894 116.22 15.9186 116.211 15.9457C116.202 15.9728 116.2 16.0016 116.204 16.0299V17.0362C116.2 17.0644 116.202 17.0932 116.211 17.1203C116.22 17.1474 116.235 17.172 116.255 17.1922C116.276 17.2124 116.3 17.2276 116.327 17.2367C116.354 17.2457 116.383 17.2483 116.411 17.2443L119.39 17.2444ZM108.446 17.2444V21.3038C108.446 22.3101 108.93 22.8305 109.935 22.8305H111.839C111.943 22.8305 112.013 22.9 112.013 23.0386V24.0449C112.014 24.068 112.01 24.0912 112.002 24.1129C111.994 24.1346 111.981 24.1543 111.965 24.1707C111.949 24.1871 111.929 24.1999 111.907 24.2081C111.886 24.2163 111.863 24.2199 111.839 24.2185H109.588C107.891 24.2185 106.818 23.1427 106.818 21.4427V17.2443H104.324C104.186 17.2443 104.151 17.1751 104.151 17.071V16.0649C104.151 15.9262 104.22 15.8568 104.324 15.8568H106.818V13.0809C106.818 12.9422 106.887 12.9073 106.991 12.9073H108.238C108.376 12.9073 108.446 12.9769 108.446 13.0809V15.8567H111.839C111.943 15.8567 112.013 15.9262 112.013 16.0648V17.0711C112.013 17.2098 111.943 17.2443 111.839 17.2443L108.446 17.2444ZM94.6621 24.045C94.6621 24.149 94.7314 24.2186 94.8701 24.2186H101.9C102.039 24.2186 102.108 24.184 102.108 24.045V23.0391C102.108 22.9001 102.039 22.8656 101.9 22.8656H99.4067V16.0649C99.4067 15.9262 99.3723 15.8568 99.2336 15.8568H94.8701C94.8425 15.8556 94.8149 15.8602 94.7892 15.8702C94.7635 15.8802 94.7401 15.8955 94.7205 15.9151C94.701 15.9346 94.6857 15.958 94.6756 15.9838C94.6656 16.0096 94.6609 16.0372 94.6621 16.0649V17.0712C94.6621 17.1752 94.7314 17.2448 94.8701 17.2448H97.8138V22.8655H94.8701C94.7314 22.8655 94.6621 22.9 94.6621 23.0391V24.045ZM87.4931 23.0041C88.1468 22.9686 88.7849 22.791 89.3634 22.4837V17.6262C88.8188 17.2977 88.1978 17.1183 87.5624 17.1058C86.1771 17.1058 85.4845 18.1467 85.4845 20.0897C85.4496 22.206 86.1771 23.0041 87.493 23.0041H87.4931ZM87.1817 15.7526C88.0126 15.7526 88.7746 16.0303 89.5366 16.6548L89.7098 16.0995C89.7152 16.0399 89.7436 15.9849 89.7889 15.946C89.8342 15.9072 89.8928 15.8876 89.9523 15.8913H90.8181C90.9219 15.8913 90.9912 15.9609 90.9912 16.0995V25.0166C90.9912 26.7166 89.8829 27.792 88.1858 27.792H84.8612C84.833 27.7961 84.8042 27.7936 84.7771 27.7846C84.7501 27.7756 84.7254 27.7603 84.7053 27.7402C84.6851 27.72 84.6699 27.6953 84.6608 27.6682C84.6518 27.6411 84.6492 27.6122 84.6532 27.5839V26.6126C84.6532 26.4738 84.7225 26.439 84.8612 26.439H87.8394C88.8439 26.439 89.3285 25.884 89.3285 24.8777V23.5941C88.6453 24.0642 87.8371 24.318 87.0085 24.3227C84.688 24.3227 83.7529 22.7264 83.7529 20.0551C83.7529 17.4526 84.757 15.7526 87.1817 15.7526ZM73.7092 24.045C73.7092 24.149 73.7785 24.2186 73.9168 24.2186H80.9474C81.0858 24.2186 81.155 24.184 81.155 24.045V23.0391C81.155 22.9001 81.0856 22.8656 80.9474 22.8656H78.4538V16.0649C78.4538 15.9262 78.4194 15.8568 78.2807 15.8568H73.9168C73.8892 15.8557 73.8617 15.8603 73.836 15.8703C73.8103 15.8804 73.787 15.8957 73.7675 15.9152C73.748 15.9348 73.7327 15.9582 73.7227 15.9839C73.7127 16.0097 73.7081 16.0373 73.7092 16.0649V17.0712C73.7092 17.1752 73.7785 17.2448 73.9168 17.2448H76.8608V22.8655H73.9168C73.7784 22.8655 73.7092 22.9 73.7092 23.0391L73.7092 24.045ZM66.7138 23.0041C67.368 22.9728 68.007 22.795 68.5837 22.4837V17.6262C68.0392 17.2977 67.4184 17.1183 66.7831 17.1058C65.3974 17.1058 64.7048 18.1467 64.7048 20.0897C64.6702 22.206 65.3978 23.0041 66.7137 23.0041H66.7138ZM66.4019 15.7526C67.1777 15.755 67.9315 16.0108 68.5492 16.4812V11.9014C68.5492 11.7624 68.6185 11.6933 68.7224 11.6933H69.969C70.0732 11.6933 70.1421 11.7625 70.1421 11.9014V24.045C70.1421 24.1837 70.0732 24.2186 69.969 24.2186H69.1032C68.9649 24.2186 68.93 24.1491 68.861 24.0105L68.6878 23.4551C67.9746 24.0118 67.0981 24.3168 66.1942 24.3227C63.8738 24.3227 62.9386 22.7265 62.9386 20.0552C62.9731 17.4526 63.9776 15.7526 66.4019 15.7526H66.4019ZM48.0468 20.0551C48.0468 22.1019 47.3886 23.0737 45.9689 23.0737C44.5487 23.0737 43.8909 22.1019 43.8909 20.0551C43.8909 18.008 44.5487 17.0362 45.9689 17.0362C47.3886 17.0362 48.0467 18.008 48.0467 20.0551L48.0468 20.0551ZM49.7436 20.0551C49.7436 17.5221 48.6701 15.7526 45.9689 15.7526C43.2676 15.7526 42.1938 17.5221 42.1938 20.0551C42.1938 22.6224 43.2676 24.3573 45.9689 24.3573C48.6701 24.3573 49.7435 22.6223 49.7435 20.0551L49.7436 20.0551ZM39.9078 24.2186H38.1068C38.0482 24.2139 37.9929 24.1894 37.9499 24.1491H37.9496C37.9348 24.1388 37.9181 24.127 37.8988 24.1145L33.6736 20.0551V24.045C33.6736 24.1837 33.6391 24.2186 33.5004 24.2186H32.2538C32.1151 24.2186 32.0461 24.1491 32.0461 24.045V11.9014C32.0421 11.8731 32.0447 11.8443 32.0537 11.8172C32.0627 11.7901 32.0779 11.7654 32.098 11.7452C32.1182 11.725 32.1427 11.7098 32.1698 11.7008C32.1968 11.6918 32.2256 11.6892 32.2538 11.6933H33.5004C33.6391 11.6933 33.6736 11.7625 33.6736 11.9014V19.6733L37.795 15.9607C37.8298 15.8912 37.8988 15.8912 37.9681 15.8912H39.5959C39.7691 15.8912 39.8035 16.0648 39.6997 16.1689L35.5093 19.8815L40.0116 24.0105C40.1154 24.045 40.0461 24.2186 39.9078 24.2186ZM21.9334 22.6223L21.6565 23.5245C21.6467 23.5865 21.651 23.6498 21.669 23.7098C21.6869 23.7699 21.7181 23.8251 21.7602 23.8714C22.5916 24.2186 23.4574 24.3922 24.9465 24.3922C27.5439 24.3922 28.7215 23.455 28.7215 21.8937C28.7215 20.2413 27.007 19.8048 25.522 19.4264C24.3879 19.1377 23.388 18.8828 23.388 18.1466C23.388 17.4876 23.8382 17.1057 25.2928 17.1057C26.1807 17.1098 27.0606 17.2744 27.8902 17.5916C28.0289 17.6607 28.1327 17.6262 28.1672 17.5221L28.4442 16.5853C28.4607 16.5589 28.4702 16.5287 28.4717 16.4975C28.4733 16.4664 28.4668 16.4354 28.4529 16.4075C28.439 16.3796 28.4182 16.3558 28.3924 16.3383C28.3667 16.3208 28.3369 16.3102 28.3059 16.3076C27.363 15.9147 26.348 15.7256 25.3272 15.7527C22.8685 15.7527 21.7602 16.6895 21.7602 18.2507C21.7602 19.9032 23.4748 20.3401 24.9593 20.7181C26.0934 21.0071 27.0937 21.2617 27.0937 21.9979C27.0937 22.6224 26.6436 23.0042 24.9809 23.0042C24.0343 23.0289 23.0923 22.8637 22.2103 22.5183C22.1066 22.4837 21.9679 22.4837 21.9334 22.6223V22.6223ZM14.9028 17.0017C13.6562 17.0017 12.8597 17.7648 12.7555 19.4306H16.8076C16.8424 17.9384 16.2881 17.0017 14.9028 17.0017ZM18.5047 19.9161V20.4019C18.5047 20.5406 18.4354 20.61 18.3315 20.61H12.7555C12.8942 22.1713 13.7255 22.9695 15.1798 22.9695C16.039 22.9818 16.8904 22.8041 17.6734 22.449C17.6975 22.4332 17.7249 22.4233 17.7536 22.4201C17.7822 22.4169 17.8112 22.4205 17.8382 22.4307C17.8651 22.4408 17.8894 22.4572 17.9089 22.4784C17.9283 22.4997 17.9426 22.5253 17.9504 22.5531L18.2277 23.4549C18.2622 23.5589 18.2622 23.663 18.089 23.7325C17.1607 24.1775 16.1392 24.3918 15.1108 24.3573C12.6172 24.3573 11.0239 22.7615 11.0239 20.0552C11.0239 17.5222 12.2709 15.7527 14.9376 15.7527C17.604 15.7526 18.5047 17.3834 18.5047 19.9161ZM7.80354 16.3771C6.84563 15.9475 5.80521 15.7343 4.75598 15.7526C2.29686 15.7526 0.634572 17.3485 0.600098 20.0897C0.600098 22.7614 2.2624 24.3922 4.72112 24.3922C5.86391 24.3922 6.76458 24.2532 7.76869 23.7673C7.90736 23.6982 7.97671 23.5941 7.90736 23.49L7.63038 22.5878C7.62026 22.5575 7.60325 22.5299 7.58069 22.5074C7.55813 22.4848 7.53063 22.4678 7.50038 22.4577C7.47013 22.4476 7.43795 22.4447 7.40639 22.4492C7.37483 22.4537 7.34475 22.4656 7.31853 22.4837C6.52803 22.811 5.68016 22.9762 4.82494 22.9696C3.19753 22.9696 2.29686 21.9633 2.29686 20.0552C2.29686 18.1812 3.19753 17.1753 4.82494 17.1753C5.6819 17.1482 6.53401 17.3141 7.31853 17.6609C7.34474 17.6791 7.37482 17.691 7.40639 17.6955C7.43796 17.7001 7.47015 17.6972 7.50042 17.6871C7.53068 17.677 7.55818 17.66 7.58074 17.6373C7.6033 17.6147 7.62029 17.5872 7.63038 17.5568L7.90736 16.6551C7.97671 16.5158 7.94184 16.4467 7.80354 16.3771ZM97.1208 6.45396C97.1208 5.69079 97.5709 5.23949 98.3329 5.23949C99.1294 5.23949 99.5451 5.69079 99.5451 6.45396C99.5451 7.21712 99.0949 7.66844 98.3329 7.66844C97.5709 7.66844 97.1208 7.21714 97.1208 6.45396ZM77.4149 5.23949C76.6529 5.23949 76.2027 5.69079 76.2027 6.45396C76.2027 7.21712 76.618 7.66844 77.4149 7.66844C78.1765 7.66844 78.627 7.21714 78.627 6.45396C78.627 5.69078 78.2113 5.23949 77.4149 5.23949ZM3.43964 7.49483C3.57832 7.49483 3.61281 7.49483 3.75148 7.3561L7.24921 3.81723L3.75148 0.347506C3.70994 0.297071 3.65929 0.254931 3.60219 0.223286C3.54927 0.20896 3.49425 0.204047 3.43964 0.208771H1.91605C1.88225 0.204123 1.84784 0.210195 1.81766 0.226139C1.78747 0.242082 1.76302 0.267096 1.74773 0.297675C1.73243 0.328253 1.72707 0.362862 1.73239 0.396651C1.73771 0.430439 1.75344 0.461712 1.77737 0.486085L5.17126 3.88637L1.8467 7.21714C1.82644 7.24268 1.81388 7.2735 1.8105 7.30596C1.80713 7.33842 1.81308 7.37118 1.82766 7.40036C1.84223 7.42954 1.86482 7.45394 1.89277 7.47068C1.92072 7.48742 1.95286 7.4958 1.9854 7.49483H3.43964Z" fill="#0000FF"/>
</svg>
