<svg width="180" height="49" viewBox="0 0 180 49" fill="none" xmlns="http://www.w3.org/2000/svg">
<path d="M35.917 9.55848L25.3945 18.9688L31.7089 24.6157L42.2313 15.2055L35.917 9.55848Z" fill="#1951A0"/>
<path d="M31.7089 24.6128L25.3945 30.2598L35.917 39.67L42.2313 34.0231L31.7089 24.6128Z" fill="#DD052B"/>
<path d="M31.7098 24.6135L25.3936 30.2602V18.9648L31.7098 24.6135Z" fill="#002E5F"/>
<path d="M49.966 28.7852C49.3173 28.7954 48.6723 28.695 48.0656 28.4892C47.5165 28.298 47.0251 27.9946 46.6307 27.6031C46.2153 27.1761 45.9034 26.6767 45.7146 26.1365C45.4845 25.4708 45.3749 24.7765 45.39 24.0799C45.3772 23.3796 45.4867 22.6818 45.7146 22.0118C45.9028 21.4529 46.2143 20.9335 46.6307 20.4841C47.0212 20.0776 47.5126 19.7585 48.0656 19.5522C48.6694 19.3357 49.3156 19.2298 49.966 19.2409C50.7884 19.214 51.6026 19.3954 52.3148 19.7641C52.9869 20.165 53.5079 20.7381 53.8096 21.4083L51.8878 22.3077C51.7726 21.9509 51.5512 21.6288 51.2472 21.3759C50.9625 21.1429 50.5354 21.0264 49.966 21.0264C49.6704 21.0145 49.3755 21.0595 49.101 21.1583C48.8266 21.2572 48.5791 21.4075 48.3752 21.5993C47.978 21.9812 47.7773 22.5388 47.7773 23.2702V24.7502C47.7773 25.4815 47.978 26.0391 48.3752 26.423C48.5791 26.6147 48.8266 26.7651 49.101 26.8639C49.3755 26.9628 49.6704 27.0078 49.966 26.9959C50.448 27.0176 50.921 26.8734 51.2878 26.5929C51.6164 26.3269 51.8678 25.9933 52.0202 25.6209L53.8523 26.5757C53.5159 27.2291 52.993 27.7915 52.3362 28.2066C51.6302 28.6097 50.803 28.8096 49.966 28.7795" fill="#1951A0"/>
<path d="M63.4504 28.6257H55.6309V26.8402L60.715 21.1839H55.8828V19.3984H63.3329V21.1839L58.2317 26.8402H63.4504V28.6257Z" fill="#1951A0"/>
<path d="M66.1416 28.6257V19.3984H73.1604V21.1839H68.3879V23.0592H72.4813V24.8447H68.3879V26.8402H73.1604V28.6257H66.1416Z" fill="#1951A0"/>
<path d="M66.1416 28.6257V19.3984H73.1604V21.1839H68.3879V23.0592H72.4813V24.8447H68.3879V26.8402H73.1604V28.6257H66.1416Z" fill="#1951A0"/>
<path d="M80.136 28.7855C79.49 28.794 78.848 28.693 78.2441 28.4876C77.6954 28.2969 77.2046 27.9934 76.8113 27.6016C76.3945 27.1755 76.0824 26.6758 75.8953 26.135C75.6652 25.4693 75.5556 24.775 75.5707 24.0783C75.5579 23.378 75.6674 22.6803 75.8953 22.0102C76.0817 21.4507 76.3934 20.931 76.8113 20.4825C77.2009 20.076 77.6916 19.7568 78.2441 19.5506C78.8449 19.3334 79.4881 19.2256 80.136 19.2336C80.9642 19.2039 81.7847 19.3854 82.5019 19.7568C83.174 20.1578 83.695 20.7308 83.9966 21.401L82.0599 22.3005C81.9448 21.9437 81.7233 21.6215 81.4193 21.3686C81.1346 21.1356 80.7075 21.0191 80.1381 21.0191C79.8429 21.0075 79.5484 21.0526 79.2743 21.1514C79.0003 21.2503 78.7531 21.4005 78.5495 21.592C78.1494 21.9739 77.9502 22.5309 77.9516 23.2629V24.7429C77.9516 25.4736 78.1509 26.0312 78.5495 26.4157C78.7531 26.6072 79.0003 26.7574 79.2743 26.8562C79.5484 26.9551 79.8429 27.0002 80.1381 26.9886C80.6208 27.0106 81.0946 26.8664 81.462 26.5856C81.7901 26.3191 82.0413 25.9856 82.1944 25.6137L84.0265 26.5685C83.6902 27.2218 83.1673 27.7843 82.5105 28.1993C81.8038 28.6027 80.9758 28.8026 80.1381 28.7722" fill="#1951A0"/>
<path d="M92.448 24.8447H88.5169V28.6257H86.2705V19.3984H88.5169V23.0592H92.448V19.3984H94.6943V28.6257H92.448V24.8447Z" fill="#1951A0"/>
<path d="M100.95 19.3984H98.7041V28.6238H100.95V19.3984Z" fill="#DD052B"/>
<path d="M108.111 24.2622L107.12 22.4118H107.075V28.6257H104.961V19.3984H107.414L110.237 23.76L111.228 25.6104H111.273V19.3984H113.385V28.6257H110.931L108.111 24.2622Z" fill="#DD052B"/>
<path d="M119.09 28.6257L115.766 19.3984H118.042L119.579 23.8268L120.391 26.7218H120.436L121.219 23.8268L122.757 19.3984H124.958L121.604 28.6257H119.09Z" fill="#DD052B"/>
<path d="M127.324 28.6257V19.3984H134.343V21.1839H129.571V23.0592H133.664V24.8447H129.571V26.8402H134.343V28.6257H127.324Z" fill="#DD052B"/>
<path d="M140.61 28.7844C139.815 28.8053 139.026 28.6622 138.303 28.3662C137.694 28.1024 137.148 27.736 136.693 27.2873L138.171 25.9505C138.489 26.2846 138.886 26.5518 139.333 26.7331C139.78 26.9143 140.266 27.0051 140.757 26.9989C141.31 26.9989 141.718 26.8996 141.985 26.6972C142.115 26.6004 142.219 26.4781 142.288 26.3397C142.358 26.2013 142.39 26.0505 142.384 25.899C142.393 25.6683 142.309 25.4424 142.147 25.2631C141.989 25.0925 141.669 24.9773 141.186 24.9174L140.165 24.799C139.072 24.6717 138.272 24.3757 137.765 23.9111C137.259 23.4464 137.004 22.8245 137.003 22.0454C136.997 21.6506 137.088 21.2594 137.27 20.8996C137.446 20.5571 137.706 20.2544 138.03 20.0135C138.389 19.7538 138.801 19.5592 139.243 19.4406C140.455 19.1282 141.748 19.1717 142.931 19.5648C143.513 19.781 144.033 20.1119 144.453 20.5329L142.958 21.883C142.707 21.6266 142.403 21.4154 142.064 21.2605C141.651 21.0879 141.198 21.0055 140.742 21.0199C140.349 20.9949 139.957 21.0768 139.617 21.2548C139.499 21.3273 139.403 21.4251 139.339 21.5392C139.274 21.6533 139.243 21.78 139.247 21.9079C139.234 22.0336 139.253 22.1604 139.303 22.2786C139.353 22.3967 139.432 22.5031 139.535 22.5896C139.816 22.7583 140.139 22.8614 140.475 22.8894L141.494 23.0345C142.56 23.186 143.348 23.4795 143.859 23.9149C144.371 24.3503 144.627 24.9703 144.628 25.7748C144.633 26.1924 144.542 26.6064 144.361 26.9913C144.188 27.3584 143.923 27.6851 143.586 27.9461C143.216 28.2259 142.786 28.4352 142.322 28.561C141.769 28.7132 141.193 28.7872 140.614 28.7806" fill="#DD052B"/>
<path d="M151.814 21.1839V28.6257H149.567V21.1839H146.774V19.3984H154.607V21.1839H151.814Z" fill="#DD052B"/>
</svg>
