<svg width="233" height="68" viewBox="0 0 233 68" fill="none" xmlns="http://www.w3.org/2000/svg">
<path d="M0.09375 21.9777C0.09375 17.6986 3.24434 15.212 5.93174 13.8764C4.34115 12.1937 2.88602 10.2651 2.88602 7.59829C2.88602 3.00725 6.75325 0.916016 10.3496 0.916016C14.7412 0.916016 17.5771 3.46416 17.5771 7.40499C17.5771 11.0075 14.6101 13.0988 11.9926 14.5222L17.0528 19.9128L23.1704 11.1437C23.5156 10.6956 23.9439 10.4891 24.4114 10.4891H36.7385L27.6713 0.916016H32.8844L43.7651 12.4705L32.8844 24.025H27.6625L36.7341 14.4519H26.404C26.002 14.4519 25.4864 14.7199 25.2548 15.0494L19.7664 22.874L26.2467 29.6002H20.8676L17.4198 25.9713C14.9728 28.95 12.5038 30.224 9.17847 30.224C4.66888 30.2196 0.09375 27.3903 0.09375 21.9777ZM8.49678 16.4377C6.3556 17.6415 4.0877 19.1528 4.0877 21.8635C4.0877 24.5171 6.32502 26.6786 9.06922 26.6786C11.6954 26.6786 13.3472 25.0574 14.9291 23.2386L8.49678 16.4377ZM10.4632 4.45705C8.38317 4.45705 6.87561 5.85853 6.87561 7.7916C6.87561 9.09642 7.74082 10.1816 8.67157 11.1613L9.44502 11.9697L9.48435 11.9477C11.407 10.8977 13.5832 9.7071 13.5832 7.32151C13.5875 5.63447 12.3028 4.45705 10.4632 4.45705Z" fill="#CA3027"/>
<path d="M9.50817 47.6439H7.92195L4.55724 43.1978L2.79186 45.1221V47.6395H1.47656V38.0137H2.79186V43.4219L7.69036 38.0137H9.26347L5.47489 42.1698L9.50817 47.6439Z" fill="black"/>
<path d="M15.4582 40.7899C16.0175 41.1018 16.4589 41.5368 16.7735 42.0903C17.0881 42.6439 17.2454 43.2809 17.2454 43.9971C17.2454 44.7132 17.0881 45.3502 16.7735 45.9082C16.4589 46.4661 16.0219 46.9055 15.4582 47.2174C14.8989 47.5293 14.2565 47.6831 13.5355 47.6831C12.8058 47.6831 12.1591 47.5293 11.5997 47.2174C11.0404 46.9055 10.5991 46.4705 10.2844 45.917C9.96981 45.3634 9.8125 44.722 9.8125 43.9971C9.8125 43.2809 9.96981 42.6483 10.2844 42.0903C10.5991 41.5368 11.036 41.1018 11.5997 40.7899C12.1634 40.478 12.8058 40.3242 13.5355 40.3242C14.2565 40.3242 14.8989 40.478 15.4582 40.7899ZM12.2727 41.7652C11.9012 41.9849 11.6172 42.2924 11.4118 42.6791C11.2065 43.0701 11.1059 43.5094 11.1059 44.0058C11.1059 44.5111 11.2065 44.9592 11.4118 45.3546C11.6172 45.75 11.9056 46.0531 12.2727 46.2684C12.6441 46.4837 13.0636 46.5935 13.5399 46.5935C14.0031 46.5935 14.4226 46.4837 14.794 46.2684C15.1654 46.0531 15.4495 45.7456 15.6549 45.3546C15.8602 44.9636 15.9607 44.5111 15.9607 44.0058C15.9607 43.5094 15.8602 43.0701 15.6549 42.6791C15.4495 42.288 15.1611 41.9849 14.794 41.7652C14.4226 41.5456 14.0075 41.4357 13.5399 41.4357C13.0636 41.4357 12.6397 41.5456 12.2727 41.7652Z" fill="black"/>
<path d="M25.0328 41.0716C25.5178 41.5724 25.7582 42.2622 25.7582 43.1408V47.6396H24.4866V43.4835C24.4866 42.8685 24.3161 42.3896 23.9753 42.0469C23.6345 41.7042 23.1625 41.5329 22.5595 41.5329C21.9128 41.5417 21.384 41.7525 20.9776 42.1567C20.5713 42.5653 20.3397 43.0925 20.2872 43.7471V47.6396H19.0156V40.3599H20.2872V41.9019C20.7723 40.8651 21.6855 40.3379 23.0358 40.3203C23.8835 40.3247 24.5477 40.5751 25.0328 41.0716Z" fill="black"/>
<path d="M31.0731 41.5329C30.7104 41.423 30.3696 41.3659 30.0419 41.3659C29.6573 41.3659 29.3515 41.4362 29.1199 41.5812C28.8883 41.7218 28.7703 41.9415 28.7703 42.2358C28.7703 42.5302 28.9014 42.7498 29.1592 42.9036C29.417 43.053 29.8146 43.2068 30.3434 43.3649C30.8459 43.5099 31.2567 43.6593 31.5756 43.8042C31.8946 43.9492 32.1656 44.1689 32.3884 44.4501C32.6113 44.7356 32.7249 45.1091 32.7249 45.5792C32.7249 46.2689 32.4671 46.7917 31.9514 47.1476C31.4358 47.5035 30.7935 47.6836 30.0288 47.6836C29.4913 47.6836 28.9669 47.5957 28.46 47.4244C27.9531 47.253 27.5293 47.0026 27.1797 46.6819L27.6604 45.7461C27.9619 46.0229 28.3333 46.2426 28.7746 46.4051C29.216 46.5721 29.6486 46.6511 30.0681 46.6511C30.4876 46.6511 30.824 46.5721 31.0819 46.4183C31.3353 46.2645 31.4664 46.0229 31.4664 45.7022C31.4664 45.3727 31.3309 45.1223 31.0644 44.9597C30.7935 44.7928 30.3871 44.6302 29.8409 44.4633C29.3558 44.3271 28.9625 44.1865 28.6567 44.0415C28.3508 43.9009 28.093 43.69 27.8745 43.4132C27.6604 43.1365 27.5511 42.7806 27.5511 42.3413C27.5511 41.6647 27.7958 41.155 28.2896 40.8124C28.7834 40.4697 29.3995 40.3027 30.138 40.3027C30.575 40.3027 31.0076 40.3642 31.4314 40.4873C31.8553 40.6103 32.2224 40.7772 32.5326 40.9881L32.0694 41.9634C31.7635 41.7921 31.4314 41.6427 31.0731 41.5329Z" fill="black"/>
<path d="M39.4797 40.7899C40.039 41.1018 40.4804 41.5368 40.795 42.0903C41.1096 42.6439 41.2669 43.2809 41.2669 43.9971C41.2669 44.7132 41.1096 45.3502 40.795 45.9082C40.4804 46.4661 40.0434 46.9055 39.4797 47.2174C38.9204 47.5293 38.278 47.6831 37.557 47.6831C36.8273 47.6831 36.1805 47.5293 35.6212 47.2174C35.0619 46.9055 34.6205 46.4705 34.3059 45.917C33.9913 45.3634 33.834 44.722 33.834 43.9971C33.834 43.2809 33.9913 42.6483 34.3059 42.0903C34.6205 41.5368 35.0575 41.1018 35.6212 40.7899C36.1849 40.478 36.8273 40.3242 37.557 40.3242C38.278 40.3242 38.916 40.478 39.4797 40.7899ZM36.2898 41.7652C35.9183 41.9849 35.6343 42.2924 35.4289 42.6791C35.2236 43.0701 35.1231 43.5094 35.1231 44.0058C35.1231 44.5111 35.2236 44.9592 35.4289 45.3546C35.6343 45.75 35.9227 46.0531 36.2898 46.2684C36.6612 46.4837 37.0807 46.5935 37.557 46.5935C38.0202 46.5935 38.4397 46.4837 38.8111 46.2684C39.1825 46.0531 39.4666 45.7456 39.672 45.3546C39.8773 44.9636 39.9778 44.5111 39.9778 44.0058C39.9778 43.5094 39.8773 43.0701 39.672 42.6791C39.4666 42.288 39.1782 41.9849 38.8111 41.7652C38.4397 41.5456 38.0246 41.4357 37.557 41.4357C37.0807 41.4357 36.6612 41.5456 36.2898 41.7652Z" fill="black"/>
<path d="M45.3127 40.7421C45.7497 40.4697 46.2697 40.3335 46.8727 40.3203V41.5592C46.1342 41.5329 45.5356 41.7262 45.0811 42.1392C44.6267 42.5521 44.3645 43.1057 44.2989 43.8042V47.644H43.0273V40.3642H44.2989V41.9327C44.5349 41.4099 44.8758 41.0145 45.3127 40.7421Z" fill="black"/>
<path d="M51.263 41.467C50.7867 41.467 50.3672 41.5724 49.9958 41.7833C49.6244 41.9942 49.336 42.2929 49.1262 42.6795C48.9165 43.0662 48.8116 43.5099 48.8116 44.0151C48.8116 44.5204 48.9121 44.9641 49.1175 45.3507C49.3228 45.7373 49.6069 46.0361 49.9652 46.2513C50.3235 46.4666 50.7387 46.5764 51.2019 46.5764C51.665 46.5764 52.0845 46.4974 52.4603 46.3436C52.8361 46.1898 53.1464 45.9614 53.3911 45.6714L54.1165 46.4139C53.7888 46.8269 53.3693 47.1432 52.8624 47.3628C52.3555 47.5825 51.783 47.6923 51.145 47.6923C50.4415 47.6923 49.8166 47.5386 49.2704 47.2267C48.7242 46.9147 48.296 46.4798 47.9901 45.9262C47.6842 45.3727 47.5312 44.7356 47.5312 44.0195C47.5312 43.3034 47.6842 42.6664 47.9901 42.1084C48.296 41.5505 48.7242 41.1155 49.2704 40.8036C49.8166 40.4917 50.4415 40.3379 51.145 40.3379C51.7568 40.3379 52.3074 40.4302 52.7924 40.6191C53.2819 40.808 53.6883 41.0804 54.016 41.4362L53.3168 42.3149C52.7575 41.7438 52.0671 41.467 51.263 41.467Z" fill="black"/>
<path d="M56.9219 37.6959C57.0705 37.8541 57.1492 38.0474 57.1492 38.289C57.1492 38.5263 57.0749 38.724 56.9219 38.8821C56.7734 39.0359 56.5811 39.115 56.3539 39.115C56.1267 39.115 55.9344 39.0359 55.7858 38.8821C55.6373 38.7284 55.5586 38.5306 55.5586 38.289C55.5586 38.0518 55.6329 37.8541 55.7858 37.6959C55.9344 37.5421 56.1267 37.4631 56.3539 37.4631C56.5855 37.4587 56.7734 37.5378 56.9219 37.6959ZM55.7246 40.3627H56.9962V47.6425H55.7246V40.3627Z" fill="black"/>
<path d="M65.8031 40.3633V47.6431H64.5184V46.101C64.0421 47.1378 63.1507 47.6651 61.8354 47.6826C60.9964 47.6826 60.3409 47.4322 59.8646 46.9314C59.3883 46.4305 59.1523 45.7408 59.1523 44.8621V40.3633H60.437V44.5194C60.437 45.1345 60.6031 45.6133 60.9352 45.956C61.2673 46.2987 61.7261 46.4701 62.3117 46.4701C62.9846 46.4613 63.5221 46.2196 63.9197 45.7495C64.3174 45.2795 64.514 44.6732 64.514 43.9395V40.3633H65.8031Z" fill="black"/>
<path d="M79.4096 41.0789C79.8859 41.5841 80.1218 42.2695 80.1218 43.1438V47.6426H78.8371V43.4865C78.8371 42.8714 78.6711 42.3925 78.339 42.041C78.0069 41.694 77.548 41.5182 76.9625 41.5182C76.2765 41.5358 75.739 41.7774 75.3457 42.2475C74.9524 42.7132 74.7558 43.3151 74.7558 44.0488V47.6382H73.4711V43.4821C73.4711 42.867 73.305 42.3881 72.9773 42.0366C72.6495 41.6896 72.1864 41.5138 71.5964 41.5138C70.9104 41.5314 70.3729 41.773 69.9753 42.2431C69.5776 42.7132 69.381 43.3107 69.381 44.0444V47.6338H68.1094V40.354H69.381V41.8829C69.8573 40.8548 70.7531 40.332 72.0771 40.3145C72.7413 40.3145 73.2963 40.477 73.7376 40.7977C74.179 41.1184 74.4805 41.5666 74.6334 42.1465C75.0791 40.9471 76.0186 40.3364 77.4519 40.3145C78.2822 40.3232 78.9376 40.5737 79.4096 41.0789Z" fill="black"/>
<path d="M92.4664 41.0716C92.9514 41.5724 93.1917 42.2622 93.1917 43.1408V47.6396H91.9201V43.4835C91.9201 42.8685 91.7497 42.3896 91.4089 42.0469C91.068 41.7042 90.5961 41.5329 89.9931 41.5329C89.3464 41.5417 88.8176 41.7525 88.4112 42.1567C88.0048 42.5653 87.7733 43.0925 87.7208 43.7471V47.6396H86.4492V40.3599H87.7208V41.9019C88.2059 40.8651 89.1191 40.3379 90.4694 40.3203C91.3171 40.3247 91.9813 40.5751 92.4664 41.0716Z" fill="black"/>
<path d="M100.962 41.3207C101.538 41.9841 101.823 42.9111 101.823 44.0929C101.823 44.2774 101.818 44.4136 101.809 44.5059H96.0894C96.1899 45.1561 96.4608 45.6745 96.9022 46.0611C97.3435 46.4477 97.8897 46.6411 98.5365 46.6411C98.9647 46.6411 99.3623 46.562 99.7338 46.4082C100.105 46.2544 100.424 46.0304 100.699 45.7492L101.399 46.4785C101.045 46.8651 100.612 47.1639 100.114 47.3747C99.6114 47.5856 99.0565 47.6911 98.4447 47.6911C97.7324 47.6911 97.1032 47.5373 96.5482 47.2298C95.9976 46.9222 95.5694 46.4873 95.2635 45.9293C94.9576 45.3714 94.8047 44.7343 94.8047 44.0182C94.8047 43.3021 94.9576 42.6695 95.2635 42.1115C95.5694 41.5579 95.9976 41.123 96.5439 40.8067C97.0901 40.4904 97.7149 40.3322 98.4185 40.3322C99.5371 40.3234 100.389 40.6529 100.962 41.3207ZM100.673 43.513C100.638 42.854 100.42 42.3312 100.018 41.9533C99.6158 41.5711 99.087 41.3822 98.4316 41.3822C97.7936 41.3822 97.2605 41.5755 96.8366 41.9621C96.4128 42.3488 96.1593 42.8672 96.0763 43.5174H100.673V43.513Z" fill="black"/>
<path d="M102.307 40.3633H103.661L105.837 46.3778L108 40.3633H109.285L106.467 47.6431H105.138L102.307 40.3633Z" fill="black"/>
<path d="M110.605 37.4336H111.877V47.6437H110.605V37.4336Z" fill="black"/>
<path d="M118.612 47.6432V46.6239C118.074 47.3401 117.231 47.6959 116.082 47.6959C115.579 47.6959 115.138 47.5993 114.762 47.406C114.382 47.2127 114.093 46.9491 113.888 46.6064C113.683 46.2681 113.582 45.8859 113.582 45.4641C113.582 44.8139 113.822 44.2955 114.299 43.9176C114.779 43.5354 115.448 43.3421 116.304 43.3333H118.603V42.9906C118.603 42.4766 118.446 42.0812 118.131 41.8001C117.816 41.5189 117.357 41.3783 116.754 41.3783C116.025 41.3783 115.282 41.6419 114.526 42.1647L113.993 41.286C114.513 40.9477 114.993 40.7017 115.435 40.5479C115.876 40.3986 116.405 40.3195 117.017 40.3195C117.921 40.3195 118.616 40.5436 119.11 40.9873C119.604 41.431 119.853 42.0549 119.861 42.8501L119.874 47.6388H118.612V47.6432ZM117.851 46.2022C118.266 45.9122 118.515 45.53 118.599 45.0555V44.3262H116.479C115.902 44.3262 115.479 44.4141 115.199 44.5898C114.919 44.7656 114.779 45.0379 114.779 45.4158C114.779 45.7936 114.919 46.088 115.203 46.312C115.487 46.5361 115.863 46.6415 116.339 46.6415C116.934 46.6371 117.436 46.4921 117.851 46.2022ZM117.624 37.2969L118.939 37.8768L117.244 39.2256L116.165 39.0894L117.624 37.2969Z" fill="black"/>
<path d="M128.939 37.4336V47.6437H127.668V46.1983C127.392 46.686 127.025 47.0594 126.566 47.3186C126.108 47.5822 125.57 47.7096 124.958 47.7096C124.272 47.7096 123.669 47.5515 123.145 47.2351C122.621 46.9188 122.214 46.4795 121.921 45.9127C121.629 45.346 121.484 44.7046 121.484 43.9797C121.484 43.2636 121.629 42.6309 121.921 42.073C122.214 41.5194 122.621 41.0845 123.145 40.7725C123.669 40.4606 124.268 40.3068 124.945 40.3068C125.566 40.3068 126.108 40.4342 126.575 40.6935C127.043 40.9527 127.405 41.3217 127.668 41.8094V37.4336H128.939ZM126.483 46.2818C126.855 46.0621 127.143 45.7546 127.353 45.3592C127.563 44.9638 127.668 44.5201 127.668 44.0236C127.668 43.5184 127.563 43.0702 127.353 42.6748C127.143 42.2794 126.855 41.9719 126.483 41.7522C126.116 41.5326 125.692 41.4227 125.216 41.4227C124.74 41.4227 124.32 41.537 123.949 41.761C123.578 41.9851 123.289 42.297 123.079 42.688C122.87 43.0834 122.765 43.5272 122.765 44.0236C122.765 44.5201 122.87 44.9638 123.079 45.3592C123.289 45.7546 123.578 46.0621 123.949 46.2818C124.32 46.5014 124.74 46.6113 125.216 46.6113C125.692 46.6113 126.112 46.5014 126.483 46.2818Z" fill="black"/>
<path d="M137.314 41.0716C137.799 41.5724 138.039 42.2622 138.039 43.1408V47.6396H136.768V43.4835C136.768 42.8685 136.597 42.3896 136.257 42.0469C135.916 41.7042 135.444 41.5329 134.841 41.5329C134.194 41.5417 133.665 41.7525 133.259 42.1567C132.852 42.5653 132.621 43.0925 132.568 43.7471V47.6396H131.297V40.3599H132.568V41.9019C133.054 40.8651 133.971 40.3379 135.317 40.3203C136.165 40.3247 136.829 40.5751 137.314 41.0716Z" fill="black"/>
<path d="M141.592 37.2969L142.908 37.8768L141.212 39.2256L140.133 39.0894L141.592 37.2969ZM140.211 40.3634H141.483V47.6432H140.211V40.3634Z" fill="black"/>
<path d="M146.888 41.467C146.412 41.467 145.992 41.5724 145.621 41.7833C145.249 41.9942 144.961 42.2929 144.751 42.6795C144.541 43.0662 144.437 43.5099 144.437 44.0151C144.437 44.5204 144.537 44.9641 144.742 45.3507C144.948 45.7373 145.232 46.0361 145.59 46.2513C145.949 46.4666 146.364 46.5764 146.827 46.5764C147.29 46.5764 147.71 46.4974 148.085 46.3436C148.461 46.1898 148.771 45.9614 149.016 45.6714L149.742 46.4139C149.414 46.8269 148.994 47.1432 148.487 47.3628C147.98 47.5825 147.408 47.6923 146.77 47.6923C146.067 47.6923 145.442 47.5386 144.895 47.2267C144.349 46.9147 143.921 46.4798 143.615 45.9262C143.309 45.3727 143.156 44.7356 143.156 44.0195C143.156 43.3034 143.309 42.6664 143.615 42.1084C143.921 41.5505 144.349 41.1155 144.895 40.8036C145.442 40.4917 146.067 40.3379 146.77 40.3379C147.382 40.3379 147.932 40.4302 148.417 40.6191C148.907 40.808 149.313 41.0804 149.641 41.4362L148.942 42.3149C148.378 41.7438 147.692 41.467 146.888 41.467Z" fill="black"/>
<path d="M157.437 41.0718C157.922 41.5726 158.162 42.2624 158.162 43.141V47.6398H156.89V43.4837C156.89 42.8687 156.72 42.3898 156.379 42.0471C156.038 41.7044 155.566 41.5331 154.963 41.5331C154.26 41.5419 153.705 41.7791 153.294 42.2492C152.883 42.7193 152.678 43.3212 152.678 44.0636V47.6398H151.406V37.4297H152.678V41.9285C153.163 40.8741 154.081 40.3381 155.444 40.3205C156.287 40.3249 156.951 40.5753 157.437 41.0718Z" fill="black"/>
<path d="M169.419 40.7899C169.979 41.1018 170.42 41.5368 170.734 42.0903C171.049 42.6439 171.206 43.2809 171.206 43.9971C171.206 44.7132 171.049 45.3502 170.734 45.9082C170.42 46.4661 169.983 46.9055 169.419 47.2174C168.86 47.5293 168.218 47.6831 167.496 47.6831C166.767 47.6831 166.12 47.5293 165.561 47.2174C165.001 46.9055 164.56 46.4705 164.245 45.917C163.931 45.3634 163.773 44.722 163.773 43.9971C163.773 43.2809 163.931 42.6483 164.245 42.0903C164.56 41.5368 164.997 41.1018 165.561 40.7899C166.12 40.478 166.767 40.3242 167.496 40.3242C168.218 40.3242 168.855 40.478 169.419 40.7899ZM166.229 41.7652C165.858 41.9849 165.574 42.2924 165.368 42.6791C165.163 43.0701 165.058 43.5094 165.058 44.0058C165.058 44.5111 165.163 44.9592 165.368 45.3546C165.574 45.75 165.862 46.0531 166.229 46.2684C166.596 46.4837 167.02 46.5935 167.496 46.5935C167.96 46.5935 168.379 46.4837 168.751 46.2684C169.122 46.0531 169.406 45.7456 169.611 45.3546C169.817 44.9636 169.917 44.5111 169.917 44.0058C169.917 43.5094 169.817 43.0701 169.611 42.6791C169.406 42.288 169.118 41.9849 168.751 41.7652C168.384 41.5456 167.964 41.4357 167.496 41.4357C167.02 41.4357 166.601 41.5456 166.229 41.7652Z" fill="black"/>
<path d="M175.252 40.7421C175.689 40.4697 176.209 40.3335 176.812 40.3203V41.5592C176.074 41.5329 175.475 41.7262 175.021 42.1392C174.566 42.5521 174.304 43.1057 174.238 43.8042V47.644H172.967V40.3642H174.238V41.9327C174.479 41.4099 174.815 41.0145 175.252 40.7421Z" fill="black"/>
<path d="M184.664 40.3638V46.9011C184.664 47.5996 184.511 48.2059 184.205 48.7287C183.899 49.2515 183.466 49.6513 182.911 49.9325C182.356 50.2136 181.705 50.3542 180.967 50.3542C179.901 50.3542 178.904 50.0159 177.982 49.335L178.542 48.3992C178.896 48.6935 179.267 48.9088 179.652 49.0538C180.036 49.1944 180.456 49.2691 180.91 49.2691C181.657 49.2691 182.256 49.0582 182.702 48.6364C183.147 48.2147 183.37 47.6523 183.37 46.945V45.9257C183.117 46.3651 182.767 46.7078 182.33 46.9494C181.893 47.191 181.391 47.314 180.827 47.314C180.18 47.314 179.608 47.1647 179.11 46.8659C178.612 46.5672 178.227 46.1542 177.952 45.6226C177.676 45.091 177.541 44.4803 177.541 43.7906C177.541 43.114 177.676 42.5121 177.952 41.9893C178.227 41.4665 178.612 41.0579 179.11 40.7636C179.608 40.4692 180.18 40.3242 180.827 40.3242C181.404 40.3242 181.906 40.4428 182.339 40.6801C182.772 40.9173 183.117 41.26 183.37 41.6993V40.3638H184.664ZM182.269 45.9653C182.614 45.7544 182.885 45.4644 183.082 45.091C183.278 44.7176 183.375 44.3002 183.375 43.8301C183.375 43.3556 183.278 42.9295 183.082 42.556C182.885 42.1826 182.614 41.8926 182.269 41.6818C181.924 41.4709 181.526 41.3654 181.081 41.3654C180.635 41.3654 180.233 41.4709 179.883 41.6818C179.534 41.8926 179.254 42.1826 179.057 42.556C178.861 42.9295 178.756 43.3512 178.756 43.8301C178.765 44.5462 178.983 45.1305 179.411 45.5918C179.839 46.0487 180.394 46.2816 181.081 46.2816C181.522 46.2816 181.919 46.1762 182.269 45.9653Z" fill="black"/>
<path d="M191.407 47.644V46.6248C190.87 47.3409 190.026 47.6967 188.877 47.6967C188.374 47.6967 187.933 47.6001 187.557 47.4068C187.181 47.2135 186.889 46.9499 186.683 46.6072C186.478 46.2689 186.373 45.8867 186.373 45.4649C186.373 44.8147 186.613 44.2963 187.09 43.9185C187.57 43.5362 188.235 43.3429 189.095 43.3341H191.394V42.9915C191.394 42.4774 191.237 42.082 190.922 41.8009C190.607 41.5197 190.149 41.3791 189.545 41.3791C188.816 41.3791 188.073 41.6427 187.317 42.1655L186.784 41.2869C187.304 40.9486 187.784 40.7025 188.226 40.5488C188.667 40.3994 189.196 40.3203 189.808 40.3203C190.712 40.3203 191.407 40.5444 191.901 40.9881C192.395 41.4318 192.644 42.0557 192.652 42.8509L192.665 47.6396H191.407V47.644ZM190.647 46.203C191.062 45.913 191.311 45.5308 191.394 45.0563V44.3271H189.275C188.702 44.3271 188.274 44.4149 187.994 44.5906C187.715 44.7664 187.575 45.0388 187.575 45.4166C187.575 45.7944 187.715 46.0888 187.999 46.3128C188.283 46.5369 188.658 46.6423 189.135 46.6423C189.729 46.6379 190.232 46.493 190.647 46.203Z" fill="black"/>
<path d="M200.861 41.0716C201.346 41.5724 201.586 42.2622 201.586 43.1408V47.6396H200.315V43.4835C200.315 42.8685 200.144 42.3896 199.803 42.0469C199.463 41.7042 198.991 41.5329 198.388 41.5329C197.741 41.5417 197.212 41.7525 196.806 42.1567C196.399 42.5653 196.168 43.0925 196.115 43.7471V47.6396H194.844V40.3599H196.115V41.9019C196.6 40.8651 197.518 40.3379 198.864 40.3203C199.712 40.3247 200.38 40.5751 200.861 41.0716Z" fill="black"/>
<path d="M204.943 37.6957C205.092 37.8539 205.171 38.0472 205.171 38.2888C205.171 38.5261 205.096 38.7238 204.943 38.8819C204.79 39.0401 204.603 39.1148 204.375 39.1148C204.148 39.1148 203.956 39.0357 203.807 38.8819C203.659 38.7282 203.58 38.5305 203.58 38.2888C203.58 38.0516 203.654 37.8539 203.807 37.6957C203.956 37.542 204.148 37.4629 204.375 37.4629C204.603 37.4629 204.795 37.5376 204.943 37.6957ZM203.746 40.3625H205.018V47.6423H203.746V40.3625Z" fill="black"/>
<path d="M206.771 40.3633L212.587 40.3765V41.2859L208.208 46.5843L212.696 46.5974V47.6562L206.648 47.6431V46.7336L211.014 41.4353L206.771 41.4221V40.3633Z" fill="black"/>
<path d="M218.909 47.644V46.6248C218.371 47.3409 217.528 47.6967 216.379 47.6967C215.876 47.6967 215.435 47.6001 215.059 47.4068C214.683 47.2135 214.391 46.9499 214.185 46.6072C213.98 46.2689 213.875 45.8867 213.875 45.4649C213.875 44.8147 214.115 44.2963 214.592 43.9185C215.072 43.5362 215.737 43.3429 216.597 43.3341H218.896V42.9915C218.896 42.4774 218.739 42.082 218.424 41.8009C218.109 41.5197 217.65 41.3791 217.047 41.3791C216.318 41.3791 215.575 41.6427 214.819 42.1655L214.286 41.2869C214.806 40.9486 215.286 40.7025 215.728 40.5488C216.169 40.3994 216.698 40.3203 217.31 40.3203C218.214 40.3203 218.909 40.5444 219.403 40.9881C219.897 41.4318 220.146 42.0557 220.154 42.8509L220.167 47.6396H218.909V47.644ZM218.149 46.203C218.564 45.913 218.813 45.5308 218.896 45.0563V44.3271H216.777C216.204 44.3271 215.776 44.4149 215.496 44.5906C215.217 44.7664 215.077 45.0388 215.077 45.4166C215.077 45.7944 215.217 46.0888 215.501 46.3128C215.785 46.5369 216.16 46.6423 216.637 46.6423C217.231 46.6379 217.734 46.493 218.149 46.203Z" fill="black"/>
<path d="M225.503 41.467C225.027 41.467 224.607 41.5724 224.236 41.7833C223.865 41.9942 223.576 42.2929 223.366 42.6795C223.157 43.0662 223.052 43.5099 223.052 44.0151C223.052 44.5204 223.152 44.9641 223.358 45.3507C223.563 45.7373 223.847 46.0361 224.205 46.2513C224.564 46.4666 224.979 46.5764 225.442 46.5764C225.905 46.5764 226.325 46.4974 226.701 46.3436C227.076 46.1898 227.387 45.9614 227.631 45.6714L228.357 46.4139C228.029 46.8269 227.609 47.1432 227.103 47.3628C226.596 47.5825 226.023 47.6923 225.385 47.6923C224.682 47.6923 224.057 47.5386 223.511 47.2267C222.964 46.9147 222.536 46.4798 222.23 45.9262C221.924 45.3727 221.771 44.7356 221.771 44.0195C221.771 43.3034 221.924 42.6664 222.23 42.1084C222.536 41.5505 222.964 41.1155 223.511 40.8036C224.057 40.4917 224.682 40.3379 225.385 40.3379C225.997 40.3379 226.548 40.4302 227.033 40.6191C227.522 40.808 227.928 41.0804 228.256 41.4362L227.557 42.3149C226.998 41.7438 226.307 41.467 225.503 41.467Z" fill="black"/>
<path d="M231.342 37.2969L232.658 37.8768L230.962 39.2256L229.883 39.0894L231.342 37.2969ZM229.961 40.3634H231.233V47.6432H229.961V40.3634Z" fill="black"/>
<path d="M7.17777 57.5809C7.70651 57.8929 8.11727 58.3278 8.41004 58.8901C8.70282 59.4481 8.84702 60.0939 8.84702 60.8144C8.84702 61.5305 8.70282 62.1632 8.41441 62.7211C8.12601 63.2747 7.71962 63.7052 7.19525 64.0128C6.67088 64.3203 6.07222 64.4741 5.39491 64.4741C4.78315 64.4741 4.24567 64.3467 3.7781 64.0875C3.31491 63.8327 2.94785 63.4636 2.68566 62.9891V67.1013H1.41406V57.1548H2.68566V58.6002C2.94785 58.1257 3.31491 57.7567 3.77373 57.5018C4.23256 57.247 4.76567 57.1152 5.36869 57.1152C6.04601 57.1152 6.64903 57.269 7.17777 57.5809ZM6.37811 63.0287C6.74954 62.809 7.03357 62.5015 7.23895 62.1061C7.44433 61.7107 7.54483 61.2669 7.54483 60.7705C7.54483 60.2828 7.43996 59.8435 7.23021 59.4481C7.02046 59.0527 6.73206 58.7452 6.36937 58.5255C6.00231 58.3058 5.58718 58.196 5.12399 58.196C4.66079 58.196 4.2413 58.3058 3.86987 58.5255C3.49844 58.7452 3.21003 59.0527 3.00029 59.4481C2.79054 59.8435 2.68566 60.2828 2.68566 60.7705C2.68566 61.2757 2.79054 61.7238 3.00029 62.1105C3.21003 62.5015 3.49844 62.8046 3.86987 63.0243C4.2413 63.2439 4.65642 63.3538 5.12399 63.3538C5.59155 63.3582 6.00668 63.2483 6.37811 63.0287Z" fill="black"/>
<path d="M12.9026 57.5331C13.3395 57.2607 13.8595 57.1245 14.4626 57.1113V58.3503C13.7241 58.3239 13.1254 58.5172 12.671 58.9302C12.2165 59.3431 11.9543 59.8967 11.8888 60.5952V64.435H10.6172V57.1553H11.8888V58.7237C12.1291 58.2009 12.4656 57.8055 12.9026 57.5331Z" fill="black"/>
<path d="M20.3616 64.435V63.4158C19.8241 64.1319 18.9808 64.4878 17.8315 64.4878C17.329 64.4878 16.8877 64.3911 16.5119 64.1978C16.1317 64.0045 15.8433 63.7409 15.6379 63.3982C15.4325 63.0555 15.332 62.6777 15.332 62.2559C15.332 61.6057 15.5724 61.0873 16.0487 60.7095C16.5293 60.3273 17.1979 60.1339 18.0544 60.1252H20.3529V59.7825C20.3529 59.2685 20.1956 58.8731 19.8809 58.5919C19.5663 58.3107 19.1075 58.1701 18.5045 58.1701C17.7747 58.1701 17.0319 58.4293 16.2759 58.9565L15.7428 58.0779C16.2628 57.7396 16.7435 57.4936 17.1848 57.3398C17.6261 57.1904 18.1549 57.1113 18.7667 57.1113C19.6712 57.1113 20.366 57.3354 20.8598 57.7791C21.3536 58.2228 21.6026 58.8467 21.6114 59.6419L21.6245 64.4306H20.3616V64.435ZM19.6013 62.994C20.0164 62.7041 20.2655 62.3218 20.3485 61.843V61.1137H18.2292C17.6524 61.1137 17.2285 61.2015 16.9488 61.3729C16.6692 61.5442 16.5293 61.821 16.5293 62.1988C16.5293 62.5766 16.6692 62.871 16.9532 63.0951C17.2372 63.3147 17.613 63.4246 18.0893 63.4246C18.6793 63.429 19.1862 63.284 19.6013 62.994Z" fill="black"/>
<path d="M26.9544 58.257C26.4781 58.257 26.0586 58.3625 25.6872 58.5733C25.3158 58.7842 25.0274 59.083 24.8176 59.4696C24.6079 59.8562 24.503 60.2999 24.503 60.8052C24.503 61.3104 24.6035 61.7541 24.8089 62.1407C25.0143 62.5273 25.2983 62.8261 25.6566 63.0414C26.0149 63.2566 26.4301 63.3665 26.8932 63.3665C27.3564 63.3665 27.7759 63.2874 28.1517 63.1336C28.5275 62.9755 28.8378 62.7514 29.0825 62.457L29.8079 63.1995C29.4801 63.6125 29.0606 63.9288 28.5538 64.1485C28.0469 64.3682 27.4744 64.478 26.8364 64.478C26.1329 64.478 25.508 64.3242 24.9618 64.0123C24.4156 63.7004 23.9874 63.2654 23.6815 62.7119C23.3756 62.1583 23.2227 61.5213 23.2227 60.8052C23.2227 60.089 23.3756 59.452 23.6815 58.894C23.9874 58.3361 24.4156 57.8968 24.9618 57.5848C25.508 57.2729 26.1329 57.1191 26.8364 57.1191C27.4482 57.1191 27.9988 57.2114 28.4838 57.4003C28.9732 57.5892 29.3796 57.8616 29.7074 58.2175L29.0082 59.0961C28.4445 58.5338 27.7541 58.257 26.9544 58.257Z" fill="black"/>
<path d="M37.8754 57.1543V64.4341H36.5907V62.892C36.1144 63.9289 35.2229 64.4561 33.9076 64.4736C33.0686 64.4736 32.4132 64.2232 31.9369 63.7224C31.4606 63.2215 31.2246 62.5318 31.2246 61.6531V57.1543H32.5093V61.3104C32.5093 61.9255 32.6754 62.4044 33.0075 62.747C33.3396 63.0897 33.7984 63.2611 34.3839 63.2611C35.0569 63.2523 35.5944 63.0106 35.992 62.5406C36.3897 62.0705 36.5863 61.4642 36.5863 60.7305V57.1543H37.8754Z" fill="black"/>
<path d="M39.1328 66.0564C39.478 66.0652 39.7445 65.9466 39.928 65.7005C40.1116 65.4545 40.2033 65.0899 40.2033 64.6154V57.1599H41.4881V64.7955C41.4881 65.5468 41.3089 66.1267 40.9462 66.5353C40.5835 66.9438 40.0766 67.1459 39.4212 67.1459C39.0104 67.1459 38.5953 67.0625 38.1758 66.8999L38.4773 65.9246C38.6783 65.9949 38.8968 66.0388 39.1328 66.0564ZM41.3963 54.4887C41.5449 54.6469 41.6235 54.8402 41.6235 55.0818C41.6235 55.3234 41.5492 55.5168 41.3963 55.6749C41.2477 55.8331 41.0554 55.9078 40.8282 55.9078C40.601 55.9078 40.4087 55.8287 40.2602 55.6749C40.1116 55.5211 40.0329 55.3234 40.0329 55.0818C40.0329 54.8402 40.1072 54.6469 40.2602 54.4887C40.4087 54.3349 40.601 54.2559 40.8282 54.2559C41.0554 54.2559 41.2477 54.3305 41.3963 54.4887Z" fill="black"/>
<path d="M45.1216 54.0879L46.4369 54.6678L44.7414 56.0166L43.6621 55.8804L45.1216 54.0879ZM43.7408 57.1544H45.0124V64.4342H43.7408V57.1544Z" fill="black"/>
<path d="M50.4154 58.257C49.9391 58.257 49.5196 58.3625 49.1481 58.5733C48.7767 58.7842 48.4883 59.083 48.2786 59.4696C48.0688 59.8562 47.9639 60.2999 47.9639 60.8052C47.9639 61.3104 48.0644 61.7541 48.2698 62.1407C48.4752 62.5274 48.7592 62.8261 49.1175 63.0414C49.4759 63.2566 49.891 63.3665 50.3542 63.3665C50.8174 63.3665 51.2369 63.2874 51.6127 63.1336C51.9885 62.9755 52.2987 62.7514 52.5434 62.4571L53.2688 63.1995C52.9411 63.6125 52.5216 63.9288 52.0147 64.1485C51.5078 64.3682 50.9354 64.478 50.2974 64.478C49.5938 64.478 48.969 64.3242 48.4228 64.0123C47.8765 63.7004 47.4483 63.2654 47.1424 62.7119C46.8365 62.1583 46.6836 61.5213 46.6836 60.8052C46.6836 60.089 46.8365 59.452 47.1424 58.894C47.4483 58.3361 47.8765 57.8968 48.4228 57.5848C48.969 57.2729 49.5938 57.1191 50.2974 57.1191C50.9091 57.1191 51.4597 57.2114 51.9448 57.4003C52.4342 57.5892 52.8406 57.8616 53.1683 58.2175L52.4691 59.0961C51.9054 58.5338 51.2194 58.257 50.4154 58.257Z" fill="black"/>
<path d="M56.2544 54.0879L57.5697 54.6678L55.8743 56.0166L54.7949 55.8804L56.2544 54.0879ZM54.8692 57.1544H56.1408V64.4342H54.8692V57.1544Z" fill="black"/>
<path d="M61.5462 58.257C61.0699 58.257 60.6504 58.3625 60.279 58.5733C59.9076 58.7842 59.6192 59.083 59.4094 59.4696C59.1997 59.8562 59.0948 60.2999 59.0948 60.8052C59.0948 61.3104 59.1953 61.7541 59.4007 62.1407C59.606 62.5274 59.8901 62.8261 60.2484 63.0414C60.6067 63.2566 61.0218 63.3665 61.485 63.3665C61.9482 63.3665 62.3677 63.2874 62.7435 63.1336C63.1193 62.9755 63.4296 62.7514 63.6743 62.4571L64.3996 63.1995C64.0719 63.6125 63.6524 63.9288 63.1455 64.1485C62.6386 64.3682 62.0662 64.478 61.4282 64.478C60.7247 64.478 60.0998 64.3242 59.5536 64.0123C59.0074 63.7004 58.5792 63.2654 58.2733 62.7119C57.9674 62.1583 57.8145 61.5213 57.8145 60.8052C57.8145 60.089 57.9674 59.452 58.2733 58.894C58.5792 58.3361 59.0074 57.8968 59.5536 57.5848C60.0998 57.2729 60.7247 57.1191 61.4282 57.1191C62.04 57.1191 62.5906 57.2114 63.0756 57.4003C63.565 57.5892 63.9714 57.8616 64.2991 58.2175L63.6 59.0961C63.0407 58.5338 62.3502 58.257 61.5462 58.257Z" fill="black"/>
<path d="M72.0986 57.8623C72.5837 58.3631 72.824 59.0529 72.824 59.9316V64.4303H71.5524V60.2742C71.5524 59.6592 71.382 59.1803 71.0411 58.8376C70.7003 58.4949 70.2284 58.3236 69.6253 58.3236C68.9218 58.3324 68.3669 58.5696 67.9561 59.0397C67.5453 59.5098 67.34 60.1117 67.34 60.8542V64.4303H66.0684V54.2246H67.34V58.7234C67.825 57.669 68.7426 57.133 70.106 57.1154C70.9494 57.1154 71.6136 57.3658 72.0986 57.8623Z" fill="black"/>
<path d="M82.1044 58.3234C81.7417 58.2136 81.4009 58.1565 81.0731 58.1565C80.6886 58.1565 80.3827 58.2268 80.1511 58.3717C79.9195 58.5123 79.8015 58.732 79.8015 59.0263C79.8015 59.3207 79.9326 59.5404 80.1904 59.6941C80.4483 59.8435 80.8459 59.9973 81.3746 60.1554C81.8772 60.3004 82.2879 60.4498 82.6069 60.5948C82.9259 60.7397 83.1968 60.9594 83.4197 61.2406C83.6426 61.5262 83.7562 61.8996 83.7562 62.3697C83.7562 63.0594 83.4984 63.5822 82.9827 63.9381C82.4671 64.294 81.8247 64.4741 81.06 64.4741C80.5225 64.4741 79.9982 64.3862 79.4913 64.2149C78.9844 64.0435 78.5605 63.7931 78.2109 63.4724L78.6916 62.5366C78.9931 62.8134 79.3646 63.0331 79.8059 63.1956C80.2472 63.3626 80.6799 63.4417 81.0994 63.4417C81.5189 63.4417 81.8553 63.3626 82.1131 63.2088C82.3666 63.055 82.4977 62.8134 82.4977 62.4927C82.4977 62.1632 82.3622 61.9172 82.0957 61.7502C81.8247 61.5833 81.4183 61.4207 80.8721 61.2538C80.3871 61.1176 79.9938 60.977 79.6879 60.832C79.382 60.6914 79.1242 60.4805 78.9057 60.2081C78.6916 59.9314 78.5824 59.5755 78.5824 59.1362C78.5824 58.4596 78.8271 57.95 79.3209 57.6073C79.8146 57.269 80.4308 57.0977 81.1693 57.0977C81.6062 57.0977 82.0389 57.1592 82.4627 57.2822C82.8866 57.4052 83.2536 57.5721 83.5639 57.783L83.1007 58.7583C82.7948 58.5826 82.4671 58.4332 82.1044 58.3234Z" fill="black"/>
<path d="M100.796 57.8699C101.273 58.3751 101.509 59.0605 101.509 59.9348V64.4336H100.224V60.2775C100.224 59.6624 100.058 59.1791 99.7257 58.832C99.3936 58.485 98.9347 58.3092 98.3492 58.3092C97.6631 58.3268 97.1257 58.5684 96.7324 59.0385C96.3391 59.5086 96.1425 60.1061 96.1425 60.8398V64.4292H94.8578V60.2731C94.8578 59.658 94.6917 59.1747 94.364 58.8277C94.0363 58.4806 93.5731 58.3048 92.9831 58.3048C92.2971 58.3224 91.7596 58.5641 91.362 59.0341C90.9643 59.5042 90.7677 60.1017 90.7677 60.8354V64.4248H89.4961V57.145H90.7677V58.6739C91.244 57.6458 92.1398 57.123 93.4638 57.1055C94.128 57.1055 94.683 57.268 95.1243 57.5887C95.5657 57.9095 95.8672 58.3576 96.0201 58.9375C96.4658 57.7381 97.4053 57.1274 98.8386 57.1055C99.6689 57.1143 100.32 57.3647 100.796 57.8699Z" fill="black"/>
<path d="M104.863 54.4889C105.012 54.647 105.091 54.8404 105.091 55.082C105.091 55.3236 105.016 55.5169 104.863 55.6751C104.715 55.8332 104.523 55.9079 104.295 55.9079C104.068 55.9079 103.876 55.8289 103.727 55.6751C103.579 55.5213 103.5 55.3236 103.5 55.082C103.5 54.8404 103.574 54.647 103.727 54.4889C103.876 54.3351 104.068 54.256 104.295 54.256C104.523 54.2516 104.71 54.3307 104.863 54.4889ZM103.662 57.1556H104.933V64.4354H103.662V57.1556Z" fill="black"/>
<path d="M113.787 57.1543V63.6916C113.787 64.3902 113.634 65.0008 113.328 65.5236C113.022 66.0464 112.589 66.4462 112.034 66.7274C111.48 67.0086 110.828 67.1492 110.09 67.1492C109.024 67.1492 108.027 66.8109 107.105 66.1299L107.665 65.1941C108.019 65.4885 108.39 65.7038 108.775 65.8487C109.159 65.9893 109.579 66.064 110.033 66.064C110.78 66.064 111.379 65.8531 111.825 65.4314C112.27 65.0096 112.493 64.4473 112.493 63.7399V62.7207C112.24 63.16 111.89 63.5027 111.453 63.7443C111.016 63.986 110.514 64.109 109.95 64.109C109.303 64.109 108.731 63.9596 108.233 63.6609C107.735 63.3621 107.35 62.9491 107.075 62.4175C106.8 61.8859 106.664 61.2753 106.664 60.5855C106.664 59.9089 106.8 59.307 107.075 58.7842C107.35 58.2614 107.735 57.8528 108.233 57.5585C108.731 57.2641 109.303 57.1191 109.95 57.1191C110.523 57.1191 111.029 57.2378 111.462 57.475C111.895 57.7122 112.24 58.0549 112.493 58.4943V57.1587H113.787V57.1543ZM111.392 62.7558C111.737 62.5449 112.008 62.255 112.205 61.8815C112.402 61.5125 112.498 61.0907 112.498 60.6206C112.498 60.1462 112.402 59.72 112.205 59.3466C112.008 58.9731 111.737 58.6832 111.392 58.4723C111.047 58.2614 110.649 58.156 110.204 58.156C109.758 58.156 109.356 58.2614 109.006 58.4723C108.657 58.6832 108.377 58.9731 108.18 59.3466C107.979 59.72 107.879 60.1418 107.879 60.6206C107.888 61.3368 108.106 61.9211 108.534 62.3824C108.963 62.8393 109.518 63.0721 110.204 63.0721C110.649 63.0721 111.047 62.9667 111.392 62.7558Z" fill="black"/>
<path d="M118.305 57.5331C118.742 57.2607 119.262 57.1245 119.865 57.1113V58.3503C119.126 58.3239 118.528 58.5172 118.073 58.9302C117.619 59.3431 117.357 59.8967 117.291 60.5952V64.435H116.02V57.1553H117.291V58.7237C117.527 58.2009 117.868 57.8055 118.305 57.5331Z" fill="black"/>
<path d="M125.761 64.435V63.4158C125.223 64.1319 124.38 64.4878 123.23 64.4878C122.728 64.4878 122.287 64.3911 121.911 64.1978C121.535 64.0045 121.242 63.7409 121.037 63.3982C120.831 63.0555 120.727 62.6777 120.727 62.2559C120.727 61.6057 120.967 61.0873 121.443 60.7095C121.919 60.3316 122.588 60.1339 123.449 60.1252H125.747V59.7825C125.747 59.2685 125.59 58.8731 125.275 58.5919C124.961 58.3107 124.502 58.1701 123.899 58.1701C123.169 58.1701 122.426 58.4293 121.67 58.9565L121.137 58.0779C121.657 57.7396 122.138 57.4936 122.579 57.3398C123.021 57.1904 123.549 57.1113 124.161 57.1113C125.066 57.1113 125.761 57.3354 126.254 57.7791C126.748 58.2228 126.997 58.8467 127.006 59.6419L127.019 64.4306H125.761V64.435ZM125 62.994C125.415 62.7041 125.664 62.3218 125.747 61.843V61.1137H123.628C123.051 61.1137 122.627 61.2015 122.348 61.3729C122.068 61.5442 121.928 61.821 121.928 62.1988C121.928 62.5766 122.068 62.871 122.352 63.0951C122.636 63.3147 123.012 63.4246 123.488 63.4246C124.083 63.429 124.585 63.284 125 62.994Z" fill="black"/>
<path d="M135.216 57.8626C135.701 58.3634 135.942 59.0532 135.942 59.9319V64.4306H134.67V60.2745C134.67 59.6595 134.5 59.1806 134.159 58.8379C133.818 58.4952 133.346 58.3239 132.743 58.3239C132.096 58.3327 131.568 58.5436 131.161 58.9477C130.755 59.3563 130.523 59.8835 130.471 60.5381V64.4306H129.199V57.1509H130.471V58.6929C130.956 57.6561 131.874 57.1289 133.219 57.1113C134.067 57.1157 134.736 57.3661 135.216 57.8626Z" fill="black"/>
<path d="M141.923 63.9504C141.368 64.3062 140.8 64.4863 140.227 64.4863C139.655 64.4863 139.187 64.315 138.833 63.9723C138.479 63.6296 138.3 63.1068 138.3 62.4127V58.3796H137.273V57.4043H138.3V55.4492H139.585V57.4043H141.8V58.3796H139.585V62.1754C139.585 62.5796 139.659 62.8696 139.804 63.0409C139.948 63.2167 140.166 63.3001 140.459 63.3001C140.804 63.3001 141.18 63.1859 141.582 62.9575L141.923 63.9504Z" fill="black"/>
<path d="M145.571 66.7318C145.191 67.0174 144.75 67.1579 144.239 67.1579C143.928 67.1579 143.644 67.114 143.391 67.0217C143.137 66.9295 142.888 66.7889 142.652 66.5956L143.199 65.5895C143.518 65.818 143.841 65.9322 144.169 65.9322C144.715 65.9322 145.126 65.6203 145.401 64.9964L145.676 64.3506L142.679 57.1543H144.02L146.319 62.9887L148.495 57.1543H149.793L146.48 65.4665C146.253 66.0245 145.952 66.4462 145.571 66.7318Z" fill="black"/>
</svg>
