<svg width="158" height="17" viewBox="0 0 158 17" fill="none" xmlns="http://www.w3.org/2000/svg">
<g clip-path="url(#clip0_247_289)">
<path d="M2.65 6.48484V13.3012H0V4.62977H2.5L2.65 6.48484ZM2.3 8.6419H1.55C1.55 7.99479 1.65 7.43395 1.85 6.91626C2.05 6.39856 2.3 5.96715 2.65 5.57888C3 5.1906 3.4 4.93176 3.9 4.71605C4.4 4.50034 4.9 4.41406 5.5 4.41406C5.95 4.41406 6.4 4.4572 6.8 4.58663C7.2 4.71605 7.5 4.88862 7.8 5.14746C8.1 5.40631 8.3 5.75144 8.45 6.18285C8.6 6.61427 8.7 7.13196 8.7 7.73594V13.258H6V7.73594C6 7.34767 5.95 7.04568 5.8 6.82997C5.7 6.61427 5.5 6.48484 5.25 6.39856C5 6.31228 4.7 6.26914 4.4 6.26914C4.05 6.26914 3.75 6.31228 3.45 6.4417C3.2 6.57113 2.95 6.74369 2.8 6.9594C2.65 7.1751 2.5 7.43395 2.4 7.73594C2.35 7.99479 2.3 8.33992 2.3 8.6419Z" fill="#005BBB"/>
<path d="M16.5004 11.3596V7.47692C16.5004 7.21807 16.4504 6.95922 16.3504 6.74352C16.2504 6.52781 16.1004 6.39839 15.8504 6.26896C15.6504 6.13954 15.3504 6.0964 15.0004 6.0964C14.7004 6.0964 14.4504 6.13954 14.2504 6.22582C14.0504 6.3121 13.8504 6.44153 13.7504 6.61409C13.6504 6.78666 13.5504 6.95922 13.5504 7.17493H10.9004C10.9004 6.78666 11.0004 6.44153 11.2004 6.13954C11.4004 5.79441 11.7004 5.53556 12.0504 5.27671C12.4504 5.01787 12.9004 4.80216 13.4004 4.67274C13.9504 4.54331 14.5004 4.45703 15.1504 4.45703C15.9504 4.45703 16.6004 4.58645 17.2504 4.80216C17.8504 5.01787 18.3504 5.363 18.7004 5.79441C19.0504 6.22582 19.2504 6.78666 19.2504 7.47692V11.1871C19.2504 11.6616 19.3004 12.0499 19.3504 12.3519C19.4004 12.6539 19.5004 12.9127 19.6504 13.1284V13.2578H16.9504C16.8004 13.0421 16.7004 12.7402 16.6504 12.395C16.5504 12.0499 16.5004 11.7048 16.5004 11.3596ZM16.8504 7.99461V9.28885H15.3504C15.0004 9.28885 14.7004 9.33199 14.4504 9.37513C14.2004 9.46142 14.0004 9.5477 13.8004 9.67712C13.6504 9.80655 13.5004 9.93597 13.4504 10.1085C13.4004 10.2811 13.3504 10.4537 13.3504 10.6694C13.3504 10.8851 13.4004 11.0576 13.5004 11.1871C13.6004 11.3596 13.7504 11.4459 13.9504 11.5753C14.1504 11.6616 14.4004 11.7048 14.6504 11.7048C15.0504 11.7048 15.4004 11.6185 15.7004 11.4891C16.0004 11.3596 16.2504 11.1871 16.4004 10.9714C16.5504 10.7557 16.6504 10.5831 16.6504 10.4105L17.3504 11.4028C17.2504 11.6185 17.1004 11.8342 16.9504 12.093C16.8004 12.3087 16.5504 12.5676 16.3004 12.7402C16.0504 12.9559 15.7504 13.1284 15.3504 13.2578C15.0004 13.3873 14.5504 13.4736 14.0504 13.4736C13.4004 13.4736 12.8504 13.3441 12.3004 13.1284C11.8004 12.9127 11.4004 12.6107 11.1004 12.2225C10.8004 11.8342 10.6504 11.3596 10.6504 10.8851C10.6504 10.4105 10.7504 10.0223 10.9504 9.67712C11.1504 9.33199 11.4504 9.03 11.8004 8.77116C12.2004 8.51231 12.7004 8.33974 13.2504 8.21032C13.8504 8.0809 14.5004 8.03775 15.2504 8.03775H16.8504V7.99461Z" fill="#005BBB"/>
<path d="M27.0496 10.8851C27.0496 10.7125 26.9996 10.5831 26.8996 10.4537C26.7996 10.3242 26.5996 10.1948 26.2996 10.0654C25.9996 9.93597 25.5496 9.84969 24.9996 9.7634C24.4996 9.67712 23.9996 9.5477 23.5996 9.41828C23.1496 9.28885 22.7996 9.07314 22.4496 8.90058C22.1496 8.68487 21.8996 8.42603 21.6996 8.16718C21.4996 7.86519 21.4496 7.5632 21.4496 7.17493C21.4496 6.8298 21.5496 6.48467 21.6996 6.13954C21.8996 5.83755 22.1496 5.53556 22.4996 5.27671C22.8496 5.01787 23.2496 4.8453 23.7496 4.67274C24.2496 4.54331 24.7996 4.45703 25.4496 4.45703C26.2996 4.45703 27.0496 4.58645 27.6996 4.80216C28.3496 5.06101 28.7996 5.363 29.1496 5.79441C29.4996 6.22582 29.6496 6.70038 29.6496 7.21807H26.9996C26.9996 7.00236 26.9496 6.78666 26.8496 6.61409C26.7496 6.44153 26.5996 6.26896 26.3496 6.18268C26.1496 6.0964 25.8496 6.01012 25.4996 6.01012C25.1996 6.01012 24.9496 6.05326 24.7496 6.13954C24.5496 6.22582 24.3496 6.35525 24.2496 6.48467C24.0496 6.70038 23.9996 6.8298 23.9996 7.00236C23.9996 7.13179 24.0496 7.26121 24.0996 7.3475C24.1496 7.43378 24.2996 7.5632 24.3996 7.64948C24.5496 7.73577 24.7496 7.82205 24.9996 7.90833C25.2496 7.99461 25.5496 8.03775 25.8996 8.0809C26.5996 8.21032 27.2496 8.38289 27.8496 8.59859C28.3996 8.8143 28.8496 9.07315 29.1996 9.41828C29.5496 9.76341 29.6996 10.238 29.6996 10.7988C29.6996 11.1871 29.5996 11.5322 29.3996 11.8773C29.1996 12.1793 28.8996 12.4813 28.5496 12.7402C28.1996 12.9559 27.7496 13.1716 27.1996 13.301C26.6996 13.4304 26.0996 13.4736 25.4496 13.4736C24.4996 13.4736 23.6996 13.3441 23.0496 13.0421C22.3996 12.7402 21.8996 12.395 21.5996 11.9636C21.2496 11.5322 21.0996 11.0576 21.0996 10.5831H23.6496C23.6496 10.8851 23.7496 11.1439 23.9496 11.3596C24.1496 11.5322 24.3496 11.7048 24.6496 11.791C24.9496 11.8773 25.2496 11.9205 25.5496 11.9205C25.8996 11.9205 26.1996 11.8773 26.3996 11.791C26.6496 11.7048 26.7996 11.5753 26.8996 11.4459C26.9996 11.2733 27.0496 11.1008 27.0496 10.8851Z" fill="#005BBB"/>
<path d="M34.6 4.62903V13.3004H31.9V4.62903H34.6ZM31.75 2.34255C31.75 1.99742 31.9 1.73857 32.15 1.52286C32.4 1.30716 32.8 1.17773 33.25 1.17773C33.7 1.17773 34.05 1.30716 34.35 1.52286C34.65 1.73857 34.75 2.04056 34.75 2.34255C34.75 2.64454 34.6 2.94653 34.35 3.16223C34.1 3.37794 33.7 3.50736 33.25 3.50736C32.8 3.50736 32.45 3.37794 32.15 3.16223C31.9 2.94653 31.75 2.68768 31.75 2.34255Z" fill="#005BBB"/>
<path d="M43.0996 11.2295V4.62891H45.7496V13.3003H43.2496L43.0996 11.2295ZM43.3996 9.41759H44.1996C44.1996 9.97842 44.0996 10.5393 43.9496 11.0138C43.7996 11.4884 43.5496 11.9198 43.2496 12.308C42.9496 12.6532 42.5496 12.9552 42.0996 13.1709C41.6496 13.3866 41.0996 13.4729 40.4496 13.4729C39.9496 13.4729 39.4996 13.4297 39.0996 13.3003C38.6996 13.1709 38.3496 12.9983 38.0496 12.7395C37.7496 12.4806 37.5496 12.1355 37.3496 11.7472C37.1996 11.3158 37.0996 10.8412 37.0996 10.2804V4.67205H39.7496V10.2804C39.7496 10.5393 39.7996 10.755 39.8496 10.9275C39.8996 11.1001 40.0496 11.2295 40.1496 11.3589C40.2996 11.4884 40.4496 11.5315 40.5996 11.6178C40.7996 11.6609 40.9996 11.7041 41.1996 11.7041C41.7496 11.7041 42.1996 11.6178 42.4996 11.4021C42.7996 11.2295 43.0496 10.9275 43.1996 10.6255C43.3496 10.2373 43.3996 9.849 43.3996 9.41759Z" fill="#005BBB"/>
<path d="M50.9 0.962891V13.3013H48.25V0.962891H50.9ZM57.2 4.6299L52.85 8.94402L50.5 10.9717L49.55 9.28915L51.4 7.26151L54 4.6299H57.2V4.6299ZM54.45 13.3013L51.5 9.28915L53.35 7.90863L57.55 13.3013H54.45Z" fill="#005BBB"/>
<path d="M61.4 6.52798V13.3012H58.75V4.62977H61.25L61.4 6.52798ZM64.45 4.54349L64.4 6.70055C64.25 6.70055 64.1 6.65741 63.95 6.65741C63.75 6.65741 63.6 6.61427 63.45 6.61427C63.05 6.61427 62.75 6.65741 62.45 6.74369C62.2 6.82997 61.95 6.9594 61.75 7.08882C61.55 7.26139 61.45 7.43395 61.35 7.6928C61.25 7.9085 61.2 8.16735 61.2 8.46934L60.65 8.33992C60.65 7.77908 60.7 7.26139 60.85 6.78683C61 6.31228 61.15 5.88087 61.4 5.53574C61.65 5.19061 61.95 4.88862 62.35 4.71605C62.7 4.54349 63.15 4.41406 63.6 4.41406C63.75 4.41406 63.9 4.41406 64.05 4.4572C64.2 4.50035 64.35 4.54349 64.45 4.54349Z" fill="#005BBB"/>
<path d="M71.1996 11.3596V7.47692C71.1996 7.21807 71.1496 6.95922 71.0496 6.74352C70.9496 6.52781 70.7996 6.39839 70.5496 6.26896C70.3496 6.13954 70.0496 6.0964 69.6996 6.0964C69.3996 6.0964 69.1496 6.13954 68.9496 6.22582C68.7496 6.31211 68.5496 6.44153 68.4496 6.61409C68.3496 6.78666 68.2496 6.95922 68.2496 7.17493H65.5996C65.5996 6.78666 65.6996 6.44153 65.8996 6.13954C66.0996 5.79441 66.3996 5.53556 66.7496 5.27671C67.1496 5.01787 67.5996 4.80216 68.0996 4.67274C68.6496 4.54331 69.1996 4.45703 69.8496 4.45703C70.6496 4.45703 71.2996 4.58645 71.9496 4.80216C72.5496 5.01787 73.0496 5.363 73.3996 5.79441C73.7496 6.22582 73.9496 6.78666 73.9496 7.47692V11.1871C73.9496 11.6616 73.9996 12.0499 74.0496 12.3519C74.0996 12.6539 74.1996 12.9127 74.3496 13.1284V13.2578H71.6496C71.4996 13.0421 71.3996 12.7402 71.3496 12.395C71.1996 12.0499 71.1996 11.7048 71.1996 11.3596ZM71.5496 7.99461V9.28885H70.0496C69.6996 9.28885 69.3996 9.33199 69.1496 9.37513C68.8996 9.46142 68.6996 9.5477 68.4996 9.67712C68.3496 9.80655 68.1996 9.93597 68.1496 10.1085C68.0996 10.2811 68.0496 10.4537 68.0496 10.6694C68.0496 10.8851 68.0996 11.0576 68.1996 11.1871C68.2996 11.3596 68.4496 11.4459 68.6496 11.5753C68.8496 11.6616 69.0996 11.7048 69.3496 11.7048C69.7496 11.7048 70.0996 11.6185 70.3996 11.4891C70.6996 11.3596 70.9496 11.1871 71.0996 10.9714C71.2496 10.7557 71.3496 10.5831 71.3496 10.4105L72.0496 11.4028C71.9496 11.6185 71.7996 11.8342 71.6496 12.093C71.4996 12.3087 71.2496 12.5676 70.9996 12.7402C70.7496 12.9559 70.4496 13.1284 70.0496 13.2578C69.6996 13.3873 69.2496 13.4304 68.7496 13.4304C68.0996 13.4304 67.5496 13.301 66.9996 13.0853C66.4996 12.8696 66.0996 12.5676 65.7996 12.1793C65.4996 11.791 65.3496 11.3165 65.3496 10.8419C65.3496 10.3674 65.4496 9.97911 65.6496 9.63398C65.8496 9.28885 66.1496 8.98686 66.4996 8.72802C66.8996 8.46917 67.3996 8.2966 67.9496 8.16718C68.5496 8.03776 69.1996 7.99461 69.9496 7.99461H71.5496V7.99461Z" fill="#005BBB"/>
<path d="M76.4496 4.62903H79.1496V13.8181C79.1496 14.4652 78.9996 14.9829 78.7496 15.4575C78.4996 15.8889 78.0996 16.234 77.5496 16.4497C77.0496 16.6654 76.3996 16.7949 75.6996 16.7949C75.4496 16.7949 75.2496 16.7949 75.0496 16.7517C74.8496 16.7517 74.5996 16.7086 74.3496 16.6654V14.8967C74.4996 14.8967 74.6496 14.9398 74.7996 14.9398C74.9496 14.9398 75.0996 14.9829 75.1996 14.9829C75.4996 14.9829 75.6996 14.9398 75.8996 14.8535C76.0996 14.7672 76.1996 14.6378 76.2996 14.4652C76.3996 14.2927 76.4496 14.077 76.4496 13.8181V4.62903V4.62903ZM76.2496 2.34255C76.2496 1.99742 76.3996 1.73857 76.6496 1.52286C76.9496 1.30716 77.2996 1.17773 77.7496 1.17773C78.1996 1.17773 78.5496 1.30716 78.8496 1.52286C79.0996 1.73857 79.2496 2.04056 79.2496 2.34255C79.2496 2.64454 79.0996 2.94653 78.8496 3.16223C78.5996 3.37794 78.1996 3.50736 77.7496 3.50736C77.2996 3.50736 76.9496 3.37794 76.6496 3.16223C76.3996 2.94653 76.2496 2.68768 76.2496 2.34255Z" fill="#005BBB"/>
<path d="M84.4496 4.62903V13.3004H81.7496V4.62903H84.4496ZM81.5996 2.34255C81.5996 1.99742 81.7496 1.73857 81.9996 1.52286C82.2496 1.30716 82.6496 1.17773 83.0996 1.17773C83.5496 1.17773 83.8996 1.30716 84.1996 1.52286C84.4996 1.73857 84.5996 2.04056 84.5996 2.34255C84.5996 2.64454 84.4496 2.94653 84.1996 3.16223C83.9496 3.37794 83.5496 3.50736 83.0996 3.50736C82.6496 3.50736 82.2996 3.37794 81.9996 3.16223C81.6996 2.94653 81.5996 2.68768 81.5996 2.34255Z" fill="#005BBB"/>
<path d="M89.65 6.48484V13.3012H87V4.62977H89.5L89.65 6.48484ZM89.3 8.6419H88.6C88.6 7.99479 88.7 7.43395 88.9 6.91626C89.1 6.39856 89.35 5.96715 89.7 5.57888C90.05 5.1906 90.45 4.93176 90.95 4.71605C91.45 4.50034 91.95 4.41406 92.55 4.41406C93 4.41406 93.45 4.4572 93.85 4.58663C94.25 4.71605 94.55 4.88862 94.85 5.14746C95.15 5.40631 95.35 5.75144 95.5 6.18285C95.65 6.61427 95.75 7.13196 95.75 7.73594V13.258H93V7.73594C93 7.34767 92.95 7.04568 92.8 6.82997C92.7 6.61427 92.5 6.48484 92.25 6.39856C92 6.31228 91.7 6.26914 91.4 6.26914C91.05 6.26914 90.75 6.31228 90.45 6.4417C90.2 6.57113 89.95 6.74369 89.8 6.9594C89.65 7.1751 89.5 7.43395 89.4 7.6928C89.3 7.99479 89.3 8.33992 89.3 8.6419Z" fill="#005BBB"/>
<path d="M102.25 11.6618C102.6 11.6618 102.85 11.6187 103.1 11.4892C103.35 11.3598 103.55 11.2304 103.7 11.0147C103.85 10.799 103.95 10.5833 103.95 10.2813H106.45C106.45 10.8853 106.25 11.4461 105.9 11.9206C105.55 12.3952 105.05 12.7835 104.4 13.0423C103.8 13.3012 103.1 13.4306 102.3 13.4306C101.5 13.4306 100.85 13.3012 100.25 13.0855C99.6504 12.8697 99.2004 12.5678 98.8004 12.1363C98.4004 11.7481 98.1504 11.2735 97.9504 10.7558C97.7504 10.2381 97.6504 9.63415 97.6504 9.03018V8.81447C97.6504 8.21049 97.7504 7.60652 97.9504 7.08882C98.1504 6.57112 98.4504 6.09657 98.8004 5.7083C99.2004 5.32003 99.6504 4.9749 100.25 4.75919C100.8 4.54349 101.5 4.41406 102.25 4.41406C103.05 4.41406 103.8 4.54349 104.4 4.80233C105 5.06118 105.5 5.44945 105.85 5.96715C106.2 6.48484 106.4 7.04568 106.4 7.73594H103.9C103.9 7.43395 103.8 7.1751 103.7 6.9594C103.55 6.74369 103.4 6.52798 103.15 6.39856C102.9 6.26914 102.6 6.18285 102.25 6.18285C101.85 6.18285 101.55 6.26914 101.3 6.39856C101.05 6.52798 100.85 6.74369 100.7 6.9594C100.55 7.21824 100.45 7.47709 100.4 7.77908C100.35 8.08107 100.35 8.4262 100.35 8.72819V8.94389C100.35 9.28902 100.35 9.59101 100.4 9.93614C100.45 10.2381 100.55 10.5401 100.7 10.7558C100.85 11.0147 101.05 11.1872 101.3 11.3167C101.5 11.5755 101.85 11.6618 102.25 11.6618Z" fill="#005BBB"/>
<path d="M111.2 4.62903V13.3004H108.5V4.62903H111.2ZM108.35 2.34255C108.35 1.99742 108.5 1.73857 108.75 1.52286C109 1.30716 109.4 1.17773 109.85 1.17773C110.3 1.17773 110.65 1.30716 110.95 1.52286C111.25 1.73857 111.35 2.04056 111.35 2.34255C111.35 2.64454 111.2 2.94653 110.95 3.16223C110.7 3.37794 110.3 3.50736 109.85 3.50736C109.4 3.50736 109.05 3.37794 108.75 3.16223C108.5 2.94653 108.35 2.68768 108.35 2.34255Z" fill="#005BBB"/>
<path d="M113.9 12.1787C113.9 11.8335 114.05 11.5315 114.3 11.3158C114.6 11.1001 114.95 10.9707 115.4 10.9707C115.85 10.9707 116.2 11.1001 116.5 11.3158C116.8 11.5315 116.9 11.8335 116.9 12.1787C116.9 12.5238 116.75 12.8258 116.5 13.0415C116.25 13.2572 115.85 13.3866 115.4 13.3866C114.95 13.3866 114.55 13.2572 114.3 13.0415C114.05 12.8258 113.9 12.5238 113.9 12.1787Z" fill="#005BBB"/>
<path d="M123.8 11.6618C124.15 11.6618 124.4 11.6187 124.65 11.4892C124.9 11.3598 125.1 11.2304 125.25 11.0147C125.4 10.799 125.5 10.5833 125.5 10.2813H128C128 10.8853 127.8 11.4461 127.45 11.9206C127.1 12.3952 126.6 12.7835 125.95 13.0423C125.35 13.3012 124.65 13.4306 123.85 13.4306C123.05 13.4306 122.4 13.3012 121.8 13.0855C121.25 12.8697 120.75 12.5678 120.35 12.1363C119.95 11.7481 119.7 11.2735 119.5 10.7558C119.3 10.2381 119.2 9.63415 119.2 9.03018V8.81447C119.2 8.21049 119.3 7.60652 119.5 7.08882C119.7 6.57112 120 6.09657 120.35 5.7083C120.75 5.32003 121.2 4.9749 121.8 4.75919C122.4 4.54349 123.05 4.41406 123.8 4.41406C124.6 4.41406 125.35 4.54349 125.95 4.80233C126.55 5.06118 127.05 5.44945 127.4 5.96715C127.75 6.48484 127.95 7.04568 127.95 7.73594H125.45C125.45 7.43395 125.35 7.1751 125.25 6.9594C125.1 6.74369 124.95 6.52798 124.65 6.39856C124.4 6.26914 124.1 6.18285 123.75 6.18285C123.35 6.18285 123.05 6.26914 122.8 6.39856C122.55 6.52798 122.35 6.74369 122.25 6.9594C122.1 7.21824 122 7.47709 121.95 7.77908C121.9 8.08107 121.9 8.4262 121.9 8.72819V8.94389C121.9 9.28902 121.9 9.59101 121.95 9.93614C122 10.2381 122.1 10.5401 122.25 10.7558C122.4 11.0147 122.6 11.1872 122.85 11.3167C123.1 11.5755 123.4 11.6618 123.8 11.6618Z" fill="#005BBB"/>
<path d="M137.95 11.4884V13.3003H130.3V11.4884H137.95ZM137.8 5.96629L131.4 13.3003H129.6V11.9198L136 4.62891H137.8V5.96629ZM136.85 4.62891V6.44084H129.75V4.62891H136.85Z" fill="#005BBB"/>
<path d="M142.95 3.67969H157.95L154.35 8.85664L157.95 14.0336H142.95V3.67969Z" fill="#F0F0F0"/>
<path d="M153.25 9.33203H144V13.2147H156L153.25 9.33203Z" fill="#FFD500"/>
<path d="M156 4.54297H144V8.42568H153.25L156 4.54297Z" fill="#005BBB"/>
</g>
<defs>
<clipPath id="clip0_247_289">
<rect width="158" height="15.9623" fill="white" transform="translate(0 0.962891)"/>
</clipPath>
</defs>
</svg>
